<svg width="265" height="274" viewBox="0 0 265 274" fill="none" xmlns="http://www.w3.org/2000/svg">
<path fill-rule="evenodd" clip-rule="evenodd" d="M0 137V274H132.5H265V137V0H132.5H0V137Z" fill="#F8D600"/>
<path fill-rule="evenodd" clip-rule="evenodd" d="M0 137V274H132.5H265V137V0H132.5H0V137ZM135.111 123.912C138.085 126.562 141.189 130.028 142.009 131.615C142.829 133.202 144.4 135.324 145.5 136.33C147.47 138.133 147.465 138.138 145.158 136.672C143.87 135.853 142.156 134.239 141.348 133.086C138.875 129.556 134.285 127.705 130.917 128.879C127.111 130.206 127.188 129.471 131.064 127.467L134.127 125.883L130.426 122.941C128.391 121.324 126.387 120 125.974 120C124.838 120 123.802 126.783 124.554 129.294C125.189 131.413 125.142 131.43 123.374 129.731C122.362 128.758 121.463 126.562 121.377 124.851C121.271 122.731 121.499 122.179 122.095 123.12C122.765 124.177 122.973 124.034 122.985 122.511C122.993 121.416 123.787 118.59 124.75 116.229L126.5 111.937L128.103 115.515C128.984 117.483 132.138 121.262 135.111 123.912ZM138.058 118C139.209 118 139.74 118.514 139.428 119.328C139.148 120.058 139.377 121.862 139.938 123.337C140.94 125.972 140.918 125.992 138.628 124.492C136.582 123.152 131 114.404 131 112.538C131 112.158 132.165 113.231 133.589 114.923C135.013 116.615 137.024 118 138.058 118ZM131.729 125.604C131.397 125.936 130.534 125.972 129.813 125.683C129.015 125.364 129.252 125.127 130.417 125.079C131.471 125.036 132.061 125.272 131.729 125.604ZM123.5 132C123.84 132.55 123.641 133 123.059 133C122.477 133 122 132.55 122 132C122 131.45 122.198 131 122.441 131C122.684 131 123.16 131.45 123.5 132ZM129.183 134.217C128.466 134.934 128 134.993 128 134.367C128 133.798 128.3 133.033 128.667 132.667C129.033 132.3 129.566 132.232 129.85 132.517C130.134 132.801 129.834 133.566 129.183 134.217ZM127.12 144.645C127.911 145.598 127.922 146 127.158 146C125.73 146 124.383 143.335 123.621 139L123.006 135.5L124.501 139.395C125.323 141.537 126.502 143.9 127.12 144.645ZM128.279 140.04C127.986 141.161 127.523 141.856 127.249 141.583C126.708 141.042 127.664 138 128.375 138C128.616 138 128.573 138.918 128.279 140.04ZM150 142.57C150 142.845 149.1 142.589 148 142C146.9 141.411 146 140.705 146 140.43C146 140.155 146.9 140.411 148 141C149.1 141.589 150 142.295 150 142.57ZM150.235 147.211C149.827 148.768 149.51 149 149.19 147.974C148.937 147.163 148.306 145.678 147.789 144.674C146.967 143.078 147.098 142.982 148.834 143.911C150.253 144.67 150.653 145.613 150.235 147.211ZM127.809 172.624C128.574 173.99 129.256 174.071 132.109 173.135C136.547 171.679 149.5 173.856 149.5 176.059C149.5 176.851 150.175 177.806 151 178.18C152.082 178.67 151.874 178.879 150.25 178.93C148.885 178.972 148 178.41 148 177.5C148 175.619 146.604 175.567 145.089 177.392C144.454 178.158 142.592 179.341 140.952 180.02C139.154 180.765 138.076 181.884 138.235 182.841C138.383 183.724 137.671 184.597 136.632 184.81C135.467 185.048 135.018 184.78 135.441 184.096C135.833 183.461 135.382 183 134.368 183C132.785 183 132.803 182.855 134.559 181.485C136.424 180.029 136.402 179.989 134 180.466C131.325 180.998 122.852 177.319 122.257 175.366C121.882 174.139 124.589 171 126.022 171C126.505 171 127.31 171.731 127.809 172.624ZM146.559 181.532C145.491 182.339 143.916 182.984 143.059 182.965C142.06 182.942 142.398 182.416 144 181.5C147.272 179.63 149.045 179.652 146.559 181.532ZM156.48 182.304C157.395 183.158 157.303 184.058 156.085 186.201C155.213 187.733 154.152 188.99 153.727 188.994C153.302 188.997 153.7 187.861 154.612 186.469C156.744 183.216 155.875 182.381 152.594 184.53C150.876 185.656 149.118 185.996 147.33 185.547L144.645 184.873L147.22 183.186C150.277 181.184 154.818 180.751 156.48 182.304ZM123.729 182.604C123.397 182.936 122.534 182.972 121.813 182.683C121.015 182.364 121.252 182.127 122.417 182.079C123.471 182.036 124.061 182.272 123.729 182.604ZM163.683 201.188C163.364 201.985 163.127 201.748 163.079 200.583C163.036 199.529 163.272 198.939 163.604 199.271C163.936 199.603 163.972 200.466 163.683 201.188ZM163.54 210.183C163.225 213.583 162.75 216.583 162.484 216.849C162.218 217.115 162 216.808 162 216.167C162 215.525 160.988 214.982 159.75 214.96C157.703 214.924 157.77 214.77 160.5 213.257C162.803 211.979 163.105 211.509 161.797 211.232C159.186 210.679 158.482 207.108 160.659 205.458C163.745 203.12 164.134 203.758 163.54 210.183ZM160 208C160 208.55 160.45 209 161 209C161.55 209 162 208.55 162 208C162 207.45 161.55 207 161 207C160.45 207 160 207.45 160 208ZM157 219.369C157 220.355 153.995 219.429 153.566 218.31C153.157 217.246 153.471 217.182 155.023 218.012C156.11 218.594 157 219.205 157 219.369ZM161.299 219.964C161.017 221.045 160.496 221.849 160.143 221.752C159.789 221.655 158.375 222.176 157 222.911L154.5 224.247L156.75 222.084C157.988 220.895 159 219.49 159 218.961C159 218.432 159.633 218 160.406 218C161.312 218 161.63 218.7 161.299 219.964ZM153.189 224.683C152.164 225.093 152.243 225.611 153.547 227.052C155.136 228.808 155.078 228.881 152.358 228.562C146.762 227.908 146.519 227.795 149 227L151.5 226.199L149 225.981C146.63 225.775 146.656 225.724 149.5 225C153.011 224.107 155.071 223.929 153.189 224.683ZM159 225.378C159 225.585 158.213 226.373 157.25 227.128C155.664 228.371 155.629 228.336 156.872 226.75C158.179 225.084 159 224.555 159 225.378Z" fill="#F68F02"/>
<path fill-rule="evenodd" clip-rule="evenodd" d="M0 137V274H132.5H265V137V0H132.5H0V137ZM133.651 122.472C136.863 124.39 148.115 138.667 145.174 137.093C144.134 136.537 142.55 134.961 141.653 133.593C139.181 129.821 133.993 127.687 130.412 128.969C128.005 129.831 127.789 129.794 129.163 128.756C130.078 128.065 131.653 126.988 132.663 126.362C134.232 125.39 134.077 125.302 131.601 125.757C129.556 126.133 128.914 125.948 129.42 125.129C129.815 124.49 130.67 124.232 131.319 124.556C131.969 124.88 131.15 123.989 129.5 122.577C127.85 121.165 126.162 120.008 125.75 120.005C125.338 120.002 125 122.545 125 125.655C125 131.092 124.929 131.245 123.152 129.637C121.302 127.963 120.306 121.453 122.066 122.541C122.58 122.858 123 121.993 123 120.618C123 119.243 123.415 117.861 123.923 117.548C124.431 117.234 125.15 115.594 125.521 113.904L126.196 110.83L128.499 115.8C129.797 118.601 132.044 121.512 133.651 122.472ZM138.187 118C138.948 118 139.586 118.787 139.604 119.75C139.621 120.713 139.985 122.551 140.412 123.835C141.176 126.133 141.149 126.143 138.639 124.499C136.074 122.818 131 115.158 131 112.966C131 112.318 132.306 113.186 133.901 114.894C135.497 116.602 137.425 118 138.187 118ZM128.457 122.931C128.774 123.443 128.575 124.144 128.016 124.49C127.457 124.835 127 124.416 127 123.559C127 121.802 127.6 121.544 128.457 122.931ZM123.457 131.931C123.774 132.443 123.575 133.144 123.016 133.49C122.457 133.835 122 133.416 122 132.559C122 130.802 122.6 130.544 123.457 131.931ZM130.768 133C129.453 135.105 128 135.656 128 134.05C128 133.527 128.787 132.641 129.75 132.08C132.146 130.685 132.189 130.724 130.768 133ZM128.032 145.02C129.852 146.144 128.785 147.238 126.663 146.424C125.77 146.081 124.583 144.158 124.025 142.151C122.435 136.427 122.932 135.056 124.867 139.824C125.832 142.202 127.256 144.54 128.032 145.02ZM128.122 140.675C127.251 142.174 127.055 142.217 127.03 140.917C126.998 139.233 128.05 137.716 128.758 138.425C128.992 138.659 128.706 139.671 128.122 140.675ZM149.54 142.793C149.252 143.081 149.408 143.807 149.885 144.408C150.362 145.009 150.39 146.4 149.947 147.5C149.503 148.6 149.109 148.916 149.07 148.202C149.032 147.488 148.152 145.149 147.116 143.005L145.233 139.107L147.648 140.689C148.976 141.559 149.827 142.506 149.54 142.793ZM128.662 153.25C128.385 153.938 128.158 153.375 128.158 152C128.158 150.625 128.385 150.063 128.662 150.75C128.94 151.438 128.94 152.563 128.662 153.25ZM128.029 172.535C128.859 173.535 129.839 173.604 132.086 172.82C133.716 172.252 136.726 172.072 138.775 172.42C140.824 172.768 143.989 173.191 145.809 173.359C147.671 173.53 150.192 174.738 151.573 176.118L154.027 178.573L151.014 178.802C148.886 178.964 148 178.586 148 177.516C148 175.62 146.609 175.561 145.089 177.392C144.454 178.158 142.592 179.341 140.952 180.02C139.154 180.765 138.076 181.884 138.235 182.841C138.383 183.724 137.671 184.597 136.632 184.81C135.346 185.073 135.002 184.805 135.53 183.951C136.091 183.044 135.59 182.845 133.671 183.212C131.716 183.586 130.893 183.239 130.455 181.857C129.684 179.428 127.949 179.481 127.302 181.954C126.884 183.552 126.217 183.796 123.645 183.296C121.915 182.959 120.366 182.352 120.202 181.948C120.038 181.543 118.989 181.452 117.871 181.744C116.481 182.107 115.993 182.864 116.326 184.138C117.092 187.067 114.449 186.371 111.055 182.75C107.958 179.446 106.82 176.776 109.433 178.944C110.558 179.878 111.418 179.772 113.433 178.452C114.845 177.527 116 176.179 116 175.458C116 174.736 117.093 173.286 118.428 172.235C121.109 170.127 126.161 170.285 128.029 172.535ZM146.559 181.532C145.491 182.339 143.916 182.984 143.059 182.965C142.06 182.942 142.398 182.416 144 181.5C147.272 179.63 149.045 179.652 146.559 181.532ZM156.401 185.634C155.414 187.211 154.486 188.67 154.341 188.878C154.196 189.086 151.965 188.264 149.383 187.05L144.689 184.844L147.532 182.979C149.096 181.953 150.737 181.338 151.18 181.611C151.622 181.885 152.775 181.659 153.742 181.111C154.991 180.402 155.89 180.497 156.849 181.441C157.979 182.554 157.907 183.232 156.401 185.634ZM163.683 197.188C163.364 197.985 163.127 197.748 163.079 196.583C163.036 195.529 163.272 194.939 163.604 195.271C163.936 195.603 163.972 196.466 163.683 197.188ZM165 203.423C165 209.106 163.072 217.298 160.509 222.5C157.807 227.987 148.564 236.14 143.645 237.374C139.861 238.324 121.267 236.026 119.956 234.447C119.193 233.528 120.498 233.601 124.962 234.725C130.772 236.189 131.198 236.161 136.237 233.994C139.117 232.755 142.829 230.72 144.487 229.472C146.144 228.225 148.4 226.985 149.5 226.718C151.263 226.29 151.225 226.218 149.18 226.116C147.398 226.027 146.935 225.5 147.18 223.841C147.506 221.641 150.531 220.432 151.557 222.092C151.889 222.63 152.928 222.574 154.084 221.955C155.846 221.012 155.891 220.748 154.517 219.374C151.872 216.729 150.869 214.199 152.152 213.406C152.87 212.962 153.038 213.129 152.595 213.845C152.165 214.542 152.543 215 153.548 215C154.518 215 155.002 215.552 154.707 216.322C154.428 217.049 155.147 218.235 156.304 218.958C157.818 219.903 158.516 219.953 158.788 219.136C158.996 218.511 159.804 218 160.583 218C163.001 218 162.179 215.003 159.75 214.96C157.709 214.924 157.779 214.769 160.5 213.295C162.645 212.133 163.073 211.532 162 211.185C158.394 210.019 158.124 206.807 161.479 205.011C163.447 203.958 163.83 203.17 163.334 201.193C162.898 199.458 163.056 198.917 163.854 199.41C164.484 199.799 165 201.605 165 203.423ZM155.71 223.438C152.286 225.471 152.08 225.821 153.574 227.062C155.018 228.259 155.534 228.081 157.615 225.662C158.927 224.136 160 222.464 160 221.944C160 220.808 160.342 220.689 155.71 223.438ZM142.75 224.689C141.787 224.941 140.213 224.941 139.25 224.689C138.287 224.438 139.075 224.232 141 224.232C142.925 224.232 143.713 224.438 142.75 224.689Z" fill="#B2412C"/>
<path fill-rule="evenodd" clip-rule="evenodd" d="M0 137V274H132.5H265V137V0H132.5H0V137ZM133.651 122.472C136.863 124.39 148.115 138.667 145.174 137.093C144.134 136.537 142.55 134.961 141.653 133.593C139.181 129.821 133.993 127.687 130.412 128.969C128.005 129.831 127.789 129.794 129.163 128.756C130.078 128.065 131.653 126.988 132.663 126.362C134.232 125.39 134.077 125.302 131.601 125.757C129.556 126.133 128.914 125.948 129.42 125.129C129.815 124.49 130.67 124.232 131.319 124.556C131.969 124.88 131.15 123.989 129.5 122.577C127.85 121.165 126.162 120.008 125.75 120.005C125.338 120.002 125 122.545 125 125.655C125 131.092 124.929 131.245 123.152 129.637C121.302 127.963 120.306 121.453 122.066 122.541C122.58 122.858 123 121.993 123 120.618C123 119.243 123.415 117.861 123.923 117.548C124.431 117.234 125.15 115.594 125.521 113.904L126.196 110.83L128.499 115.8C129.797 118.601 132.044 121.512 133.651 122.472ZM138.187 118C138.948 118 139.586 118.787 139.604 119.75C139.621 120.713 139.985 122.551 140.412 123.835C141.176 126.133 141.149 126.143 138.639 124.499C136.074 122.818 131 115.158 131 112.966C131 112.318 132.306 113.186 133.901 114.894C135.497 116.602 137.425 118 138.187 118ZM128.457 122.931C128.774 123.443 128.575 124.144 128.016 124.49C127.457 124.835 127 124.416 127 123.559C127 121.802 127.6 121.544 128.457 122.931ZM123.457 131.931C123.774 132.443 123.575 133.144 123.016 133.49C122.457 133.835 122 133.416 122 132.559C122 130.802 122.6 130.544 123.457 131.931ZM130.768 133C129.453 135.105 128 135.656 128 134.05C128 133.527 128.787 132.641 129.75 132.08C132.146 130.685 132.189 130.724 130.768 133ZM128.032 145.02C129.852 146.144 128.785 147.238 126.663 146.424C125.77 146.081 124.583 144.158 124.025 142.151C122.435 136.427 122.932 135.056 124.867 139.824C125.832 142.202 127.256 144.54 128.032 145.02ZM128.122 140.675C127.251 142.174 127.055 142.217 127.03 140.917C126.998 139.233 128.05 137.716 128.758 138.425C128.992 138.659 128.706 139.671 128.122 140.675ZM149.54 142.793C149.252 143.081 149.408 143.807 149.885 144.408C150.362 145.009 150.39 146.4 149.947 147.5C149.503 148.6 149.109 148.916 149.07 148.202C149.032 147.488 148.152 145.149 147.116 143.005L145.233 139.107L147.648 140.689C148.976 141.559 149.827 142.506 149.54 142.793ZM128.662 153.25C128.385 153.938 128.158 153.375 128.158 152C128.158 150.625 128.385 150.063 128.662 150.75C128.94 151.438 128.94 152.563 128.662 153.25ZM127.87 172.479C128.899 173.48 129.964 173.56 132.145 172.8C133.743 172.243 136.726 172.078 138.775 172.434C140.824 172.79 143.625 173.198 145 173.34C149.099 173.764 151.945 175.028 152.925 176.861C153.694 178.296 153.357 178.624 150.924 178.809C148.88 178.965 148 178.576 148 177.516C148 175.62 146.609 175.561 145.089 177.392C144.454 178.158 142.592 179.341 140.952 180.02C139.154 180.765 138.076 181.884 138.235 182.841C138.383 183.724 137.671 184.597 136.632 184.81C135.346 185.073 135.002 184.805 135.53 183.951C136.091 183.044 135.59 182.845 133.671 183.212C131.716 183.586 130.893 183.239 130.455 181.857C129.684 179.428 127.949 179.481 127.302 181.954C126.884 183.552 126.217 183.796 123.645 183.296C121.915 182.959 120.366 182.352 120.202 181.948C120.038 181.543 118.989 181.452 117.871 181.744C116.481 182.107 115.993 182.864 116.326 184.138C116.92 186.408 114.763 186.62 112.643 184.5C111.818 183.675 110.823 183 110.432 183C109.586 183 107.077 179.837 107.032 178.712C107.014 178.279 108.237 178.054 109.75 178.212C111.852 178.432 112.467 178.088 112.361 176.75C112.285 175.787 112.769 175 113.437 175C114.105 175 115.737 173.845 117.063 172.433C119.083 170.283 120.044 169.97 122.987 170.506C124.919 170.858 127.117 171.746 127.87 172.479ZM104 180.531C104 181.374 104.705 182.333 105.566 182.664C106.718 183.106 106.03 183.891 102.964 185.632C98.245 188.313 96.67 188.723 99.559 186.519C101.112 185.334 101.231 184.861 100.158 184.153C99.038 183.415 99.037 182.914 100.148 181.134C101.694 178.659 104 178.298 104 180.531ZM146.559 181.532C145.491 182.339 143.916 182.984 143.059 182.965C142.06 182.942 142.398 182.416 144 181.5C147.272 179.63 149.045 179.652 146.559 181.532ZM158 182.142C158 182.878 156.139 186.304 154.341 188.878C154.196 189.086 151.965 188.264 149.383 187.05L144.689 184.844L147.532 182.979C149.096 181.953 150.737 181.338 151.18 181.611C151.622 181.885 152.748 181.681 153.682 181.158C155.543 180.117 158 180.676 158 182.142ZM163.683 197.188C163.364 197.985 163.127 197.748 163.079 196.583C163.036 195.529 163.272 194.939 163.604 195.271C163.936 195.603 163.972 196.466 163.683 197.188ZM165 203.423C165 206.192 164.502 209.386 162.649 218.5C161.937 222.003 155.133 231.571 151.239 234.544C145.493 238.931 143.756 239.359 133.98 238.793C129.64 238.541 126.321 238.71 126.604 239.168C126.887 239.626 128.329 240.036 129.809 240.079C131.289 240.122 131.87 240.407 131.1 240.712C129.104 241.503 115.886 238.994 116.533 237.947C116.829 237.468 115.142 236.095 112.785 234.896C107.299 232.104 96 222.227 96 220.223C96 218.89 96.239 218.906 97.829 220.345C98.835 221.255 99.995 222 100.408 222C100.82 222 103.71 224.191 106.829 226.868C111.812 231.145 114.458 232.508 119.871 233.586C120.625 233.736 123.453 234.389 126.156 235.037C130.571 236.096 131.598 235.989 136.272 233.979C139.132 232.748 142.829 230.72 144.487 229.472C146.144 228.225 148.4 226.985 149.5 226.718C151.263 226.29 151.225 226.218 149.18 226.116C147.398 226.027 146.935 225.5 147.18 223.841C147.506 221.641 150.531 220.432 151.557 222.092C151.889 222.63 152.928 222.574 154.084 221.955C155.846 221.012 155.891 220.748 154.517 219.374C151.872 216.729 150.869 214.199 152.152 213.406C152.87 212.962 153.038 213.129 152.595 213.845C152.165 214.542 152.543 215 153.548 215C154.518 215 155.002 215.552 154.707 216.322C154.428 217.049 155.147 218.235 156.304 218.958C157.818 219.903 158.516 219.953 158.788 219.136C158.996 218.511 159.804 218 160.583 218C163.001 218 162.179 215.003 159.75 214.96C157.709 214.924 157.779 214.769 160.5 213.295C162.645 212.133 163.073 211.532 162 211.185C158.394 210.019 158.124 206.807 161.479 205.011C163.447 203.958 163.83 203.17 163.334 201.193C162.898 199.458 163.056 198.917 163.854 199.41C164.484 199.799 165 201.605 165 203.423ZM155.71 223.438C152.286 225.471 152.08 225.821 153.574 227.062C155.018 228.259 155.534 228.081 157.615 225.662C158.927 224.136 160 222.464 160 221.944C160 220.808 160.342 220.689 155.71 223.438ZM142.75 224.689C141.787 224.941 140.213 224.941 139.25 224.689C138.287 224.438 139.075 224.232 141 224.232C142.925 224.232 143.713 224.438 142.75 224.689Z" fill="#681404"/>
<path fill-rule="evenodd" clip-rule="evenodd" d="M0 137V274H132.5H265V137V0H132.5H0V137ZM128.132 114C128.674 114 128.89 114.369 128.611 114.821C128.008 115.796 131.878 122.455 132.617 121.716C133.26 121.073 141 128.824 141 130.111C141 130.634 141.672 131.321 142.494 131.636C143.316 131.952 143.749 132.598 143.455 133.072C143.162 133.546 143.84 134.508 144.961 135.208C147.606 136.86 147.622 138.403 144.979 136.989C143.868 136.394 142.523 136.177 141.991 136.506C141.445 136.843 141.285 136.421 141.623 135.539C143.022 131.895 135.14 127.276 130.412 128.969C128.005 129.831 127.789 129.794 129.163 128.756C130.078 128.065 131.653 126.988 132.663 126.362C134.232 125.39 134.077 125.302 131.601 125.757C129.556 126.133 128.914 125.948 129.42 125.129C129.815 124.49 130.67 124.286 131.319 124.676C131.992 125.079 131.909 124.656 131.128 123.692C129.703 121.936 127.445 121.292 128.457 122.931C128.774 123.443 128.575 124.144 128.016 124.49C127.133 125.036 126.522 123.025 126.882 120.75C126.947 120.338 126.612 120 126.138 120C125.664 120 125.225 122.362 125.162 125.25C124.997 132.804 124.814 133.667 123.376 133.667C121.759 133.667 120.758 131.268 122.044 130.473C122.57 130.148 123 130.434 123 131.108C123 131.782 123.297 132.036 123.661 131.673C124.024 131.31 123.502 130.107 122.5 129C121.498 127.893 120.947 126.719 121.276 126.391C121.604 126.063 121.462 124.716 120.961 123.397C120.04 120.975 121.375 119.863 122.338 122.25C122.615 122.938 122.878 122.289 122.921 120.809C122.964 119.329 123.415 117.861 123.923 117.548C124.431 117.234 125.189 115.52 125.609 113.739C126.107 111.62 126.505 111.105 126.759 112.25C126.972 113.213 127.59 114 128.132 114ZM139.151 118.015C140.879 118.027 141.135 118.262 140.121 118.904C138.96 119.64 138.987 120.268 140.295 122.889C141.148 124.6 141.64 126 141.388 126C139.742 126 135.657 122.162 133.815 118.884C132.614 116.748 131.279 115 130.847 115C130.416 115 130.321 114.328 130.636 113.506C131.085 112.337 131.818 112.664 134.006 115.006C135.559 116.669 137.846 118.007 139.151 118.015ZM154.25 127.662C153.563 127.94 152.438 127.94 151.75 127.662C151.063 127.385 151.625 127.158 153 127.158C154.375 127.158 154.938 127.385 154.25 127.662ZM131.968 130.75C131.906 132.213 129.01 135.343 128.34 134.673C127.965 134.298 128.523 133.12 129.579 132.055C131.773 129.844 132.012 129.713 131.968 130.75ZM124.29 137C123.986 138.162 124.259 139 124.942 139C125.597 139 125.802 139.554 125.404 140.25C125.012 140.938 126.172 140.15 127.983 138.5L131.275 135.5L129.411 138.5C128.385 140.15 127.086 141.846 126.523 142.269C125.877 142.755 126.21 143.58 127.427 144.509C129.632 146.191 129.113 147.364 126.593 146.397C125.662 146.04 124.642 144.462 124.328 142.89C124.014 141.318 123.385 140.262 122.931 140.543C122.046 141.089 122.479 137.653 123.502 135.996C124.495 134.39 124.853 134.846 124.29 137ZM149.5 143.269C149.5 143.946 150.025 144.5 150.667 144.5C151.308 144.5 152.171 144.838 152.583 145.25C152.996 145.662 152.583 146 151.667 146C150.75 146 149.948 146.787 149.884 147.75C149.774 149.417 149.746 149.417 149.311 147.75C149.059 146.787 148.099 145.993 147.177 145.985C145.729 145.971 145.705 145.837 147 145C147.949 144.387 148.052 144.025 147.281 144.015C146.611 144.007 146.322 143.325 146.638 142.5C146.955 141.675 146.716 141 146.107 141C145.498 141 145 140.524 145 139.943C145 139.355 145.997 139.585 147.25 140.463C148.488 141.329 149.5 142.592 149.5 143.269ZM129.289 152.731C129.771 155.252 129.706 155.318 128.438 153.584C127.682 152.551 127.301 151.322 127.591 150.853C128.432 149.492 128.733 149.825 129.289 152.731ZM112 171.107C112 172.601 116.228 172.104 118.126 170.386C119.585 169.065 120.482 168.973 123.069 169.874C124.808 170.48 126.597 170.749 127.046 170.472C127.495 170.194 128.187 170.494 128.585 171.138C129.08 171.939 128.865 172.041 127.905 171.463C126.737 170.759 126.717 170.884 127.787 172.205C128.977 173.674 133 173.619 133 172.133C133 171.785 134.982 171.5 137.405 171.5C139.827 171.5 141.62 171.805 141.39 172.178C140.81 173.116 144.754 174.27 145.97 173.518C146.514 173.182 147.98 173.444 149.229 174.099L151.5 175.291L149.5 172.959C147.957 171.161 148.564 171.379 152.151 173.912C158.74 178.566 166.371 189.676 165.217 192.936C164.913 193.797 164 192.597 162.937 189.936C161.962 187.496 160.693 185.607 160.118 185.738C159.543 185.869 159.311 185.352 159.604 184.589C160.783 181.518 158.158 182.291 156.415 185.529C155.386 187.438 154.278 189 153.951 189C153.624 189 151.592 188.141 149.434 187.092C147.277 186.042 145.171 185.394 144.756 185.651C142.66 186.946 144.365 184.991 146.619 183.514C149.137 181.864 152.546 180.937 156.25 180.895C158.511 180.87 158.487 180.792 155.34 177.924C153.701 176.431 152.891 176.093 153.23 177.046C153.636 178.185 153.02 178.649 150.89 178.812C148.877 178.965 148 178.572 148 177.516C148 175.62 146.609 175.561 145.089 177.392C144.454 178.158 142.592 179.341 140.952 180.02C139.154 180.765 138.076 181.884 138.235 182.841C138.383 183.724 137.671 184.597 136.632 184.81C135.346 185.073 135.002 184.805 135.53 183.951C136.091 183.044 135.59 182.845 133.671 183.212C131.716 183.586 130.893 183.239 130.455 181.857C129.684 179.428 127.949 179.481 127.302 181.954C126.884 183.552 126.217 183.796 123.645 183.296C121.915 182.959 120.366 182.352 120.202 181.948C120.038 181.543 118.989 181.452 117.871 181.744C116.481 182.107 115.993 182.864 116.326 184.138C116.92 186.408 114.763 186.62 112.643 184.5C110.518 182.375 108.467 182.621 102.86 185.673C96.541 189.112 93.547 193.765 94.364 198.877C94.695 200.944 94.527 204.161 93.992 206.027C93.161 208.926 93.372 209.936 95.442 212.96C96.774 214.907 98.389 217.625 99.03 219C99.671 220.375 102.964 223.797 106.348 226.605C111.758 231.095 114.519 232.52 119.871 233.586C120.625 233.736 123.453 234.389 126.156 235.037C130.571 236.096 131.598 235.989 136.272 233.979C139.132 232.748 142.829 230.72 144.487 229.472C146.144 228.225 148.4 226.985 149.5 226.718C151.263 226.29 151.225 226.218 149.18 226.116C147.398 226.027 146.935 225.5 147.18 223.841C147.506 221.641 150.531 220.432 151.557 222.092C151.889 222.63 152.928 222.574 154.084 221.955C155.846 221.012 155.891 220.748 154.517 219.374C151.872 216.729 150.869 214.199 152.152 213.406C152.87 212.962 153.038 213.129 152.595 213.845C152.165 214.542 152.543 215 153.548 215C154.518 215 155.002 215.552 154.707 216.322C154.003 218.156 157.994 220.627 159.009 218.985C159.434 218.298 160.619 218.062 161.787 218.432C164.093 219.164 164.531 217.904 166.037 206.224L166.904 199.5L166.467 207.959C166.129 214.504 165.422 217.662 163.34 221.916C154.609 239.761 130.91 248.247 112.52 240.112C110.034 239.012 108 237.637 108 237.056C108 236.475 107.395 236 106.655 236C105.915 236 104.453 234.995 103.405 233.767C101.854 231.95 101.825 231.786 103.25 232.89C105.961 234.989 105.507 232.173 102.75 229.789C95.76 223.745 91.998 219.694 91.985 218.195C91.971 216.729 91.832 216.703 90.954 218C90.211 219.099 90.12 218.725 90.615 216.601C91.087 214.577 90.953 213.911 90.171 214.395C89.365 214.892 89.113 212.191 89.275 204.794C89.47 195.889 89.867 193.753 92.216 188.97C93.71 185.928 96.553 181.546 98.533 179.232C100.597 176.821 101.826 174.527 101.412 173.858C100.958 173.123 101.126 172.96 101.866 173.417C102.523 173.823 104.366 173.029 106.048 171.613C108.827 169.275 112 169.005 112 171.107ZM146.559 181.532C145.491 182.339 143.916 182.984 143.059 182.965C142.06 182.942 142.398 182.416 144 181.5C147.272 179.63 149.045 179.652 146.559 181.532ZM163.683 197.188C163.364 197.985 163.127 197.748 163.079 196.583C163.036 195.529 163.272 194.939 163.604 195.271C163.936 195.603 163.972 196.466 163.683 197.188ZM165.683 197.188C165.364 197.985 165.127 197.748 165.079 196.583C165.036 195.529 165.272 194.939 165.604 195.271C165.936 195.603 165.972 196.466 165.683 197.188ZM164.632 207.049C164.017 213.666 162.2 220.528 162.063 216.75C162.023 215.633 161.186 214.986 159.75 214.96C157.709 214.924 157.779 214.769 160.5 213.295C162.645 212.133 163.073 211.532 162 211.185C158.394 210.019 158.124 206.807 161.479 205.011C163.447 203.958 163.83 203.17 163.334 201.193C162.865 199.326 163.028 198.899 163.985 199.491C164.922 200.07 165.094 202.076 164.632 207.049ZM160.88 222.25C160.225 223.488 158.971 225.608 158.094 226.961C157.113 228.477 156.986 229.123 157.764 228.643C159.072 227.838 163.416 220 162.556 220C162.289 220 161.535 221.012 160.88 222.25ZM155.71 223.438C152.286 225.471 152.08 225.821 153.574 227.062C155.018 228.259 155.534 228.081 157.615 225.662C158.927 224.136 160 222.464 160 221.944C160 220.808 160.342 220.689 155.71 223.438ZM142.75 224.689C141.787 224.941 140.213 224.941 139.25 224.689C138.287 224.438 139.075 224.232 141 224.232C142.925 224.232 143.713 224.438 142.75 224.689ZM127.729 247.604C127.397 247.936 126.534 247.972 125.813 247.683C125.015 247.364 125.252 247.127 126.417 247.079C127.471 247.036 128.061 247.272 127.729 247.604Z" fill="#E1E1E1"/>
<path fill-rule="evenodd" clip-rule="evenodd" d="M178.033 32.626C175.159 35.044 170.188 43 171.551 43C171.877 43 171.432 43.711 170.562 44.581C169.693 45.45 169.237 46.575 169.55 47.081C169.862 47.586 169.73 48 169.257 48C168.783 48 167.601 50.207 166.631 52.905C165.661 55.603 163.981 58.612 162.898 59.592C161.816 60.572 161.156 61.965 161.433 62.687C161.71 63.409 161.537 64 161.048 64C160.559 64 159.844 65.463 159.459 67.25C158.147 73.342 156.268 75.848 152.757 76.186L149.5 76.5L149.643 85.75C149.722 90.838 149.385 95 148.893 95C148.402 95 148 95.65 148 96.444C148 97.239 146.988 99.018 145.75 100.398C143.949 102.407 142.104 103.069 136.5 103.721C131.271 104.329 129.525 104.91 129.597 106.017C129.662 107 128.743 107.5 126.872 107.5C124.562 107.5 123.919 106.955 123.331 104.5C122.299 100.19 122.313 99.588 123.467 98.737C124.1 98.27 123.16 96.859 121.041 95.092C118.053 92.602 117.763 91.991 118.913 90.605C120.375 88.843 119.347 88.495 117.023 89.965C116.015 90.602 114.995 90.4 113.813 89.331C111.917 87.615 105 88.222 105 90.104C105 90.662 104.615 90.88 104.145 90.59C103.675 90.299 102.247 91.173 100.971 92.531C99.695 93.889 99.067 95.014 99.576 95.03C100.084 95.047 99.668 95.545 98.65 96.136C97.125 97.023 96.16 96.601 93.15 93.734C91.143 91.821 87.025 88.632 84 86.646C80.975 84.661 75.393 80.778 71.596 78.018C66.133 74.047 63.885 73 60.822 73C57.546 73 56.794 73.411 55.934 75.672C55.376 77.142 55.2 79.055 55.545 79.922C55.889 80.79 56.346 82.816 56.56 84.425C56.774 86.034 57.523 87.715 58.225 88.16C58.926 88.605 59.156 88.976 58.736 88.985C57.536 89.009 63.503 100.193 66.347 103.25C67.753 104.762 68.623 106 68.278 106C67.933 106 68.681 107.096 69.94 108.436C72.171 110.811 72.176 110.859 70.129 110.324C68.975 110.022 67.272 110.065 66.345 110.421C64.929 110.965 65.271 111.693 68.493 114.992C70.6 117.151 72.702 118.684 73.163 118.4C73.623 118.115 74 118.385 74 119C74 119.615 74.403 119.869 74.895 119.565C75.388 119.26 76.059 119.712 76.388 120.569C76.717 121.426 77.439 121.847 77.993 121.504C78.547 121.162 79 121.275 79 121.756C79 122.236 80.631 123.407 82.624 124.358C86.891 126.392 86.37 127.501 81.307 127.16C78.223 126.952 77.866 127.134 78.904 128.384C79.574 129.192 82.57 130.622 85.561 131.563C88.795 132.58 91 133.85 91 134.696C91 135.478 91.412 135.864 91.915 135.553C92.418 135.242 92.999 135.497 93.206 136.119C93.414 136.742 95.365 137.417 97.542 137.619C102.087 138.042 111.147 139.814 111.726 140.393C111.941 140.608 111.486 142.295 110.716 144.142C109.389 147.319 107.925 153.512 108.069 155.338C108.105 155.799 106.305 157.582 104.068 159.302C101.83 161.021 100 162.808 100 163.273C100 163.738 99.57 163.852 99.043 163.527C98.488 163.183 98.246 164.194 98.467 165.94C99.012 170.244 99.876 171.348 101.589 169.926C104.579 167.445 102.81 170.619 99.061 174.462C94.57 179.066 87.794 189.858 88.588 191.143C88.88 191.614 88.673 192 88.13 192C86.382 192 84.724 203.121 85.395 210.345C86.035 217.228 89.43 227 91.182 227C91.697 227 91.864 227.411 91.554 227.913C90.313 229.921 101.146 239.963 108.442 243.569C114.676 246.65 116.914 247.214 124.301 247.563C129.419 247.805 133.151 247.565 133.519 246.969C133.86 246.418 134.581 246.241 135.121 246.575C135.662 246.909 139.063 246.138 142.678 244.862C147.706 243.087 150.88 241.034 156.17 236.137C162.292 230.468 167.213 224 165.403 224C165.047 224 165.256 223.396 165.869 222.658C166.481 221.92 166.687 221.02 166.325 220.658C165.963 220.296 166.24 220 166.94 220C167.681 220 167.965 219.35 167.618 218.448C167.291 217.594 167.439 217.153 167.947 217.467C169.286 218.295 170.357 209.666 169.464 205.257C169.045 203.191 168.616 200.825 168.512 200C167.982 195.835 166.74 192 165.921 192C165.414 192 164.975 192.563 164.944 193.25C164.913 193.938 164.124 192.7 163.191 190.5C160.883 185.063 158.932 181.734 158.378 182.288C158.126 182.541 158.819 184.274 159.92 186.14C164.667 194.185 166.086 208.383 162.965 216.593C162.431 217.997 162.423 219 162.945 219C163.995 219 164.84 215.51 166.037 206.224L166.904 199.5L166.467 207.959C166.129 214.504 165.422 217.662 163.34 221.916C154.609 239.761 130.91 248.247 112.52 240.112C110.034 239.012 108 237.637 108 237.056C108 236.475 107.395 236 106.655 236C105.915 236 104.453 234.995 103.405 233.767C101.854 231.95 101.825 231.786 103.25 232.89C105.961 234.989 105.507 232.173 102.75 229.789C96.634 224.501 92 219.784 92 218.846C92 218.272 91.269 216.262 90.376 214.379C89.142 211.78 88.857 208.951 89.189 202.62C89.685 193.167 92.381 186.42 98.533 179.232C100.597 176.821 101.826 174.527 101.412 173.858C100.958 173.123 101.126 172.96 101.866 173.417C102.523 173.823 104.366 173.029 106.048 171.613C108.827 169.275 112 169.005 112 171.107C112 172.601 116.228 172.104 118.126 170.386C119.585 169.065 120.482 168.973 123.069 169.874C124.808 170.48 126.597 170.749 127.046 170.472C127.495 170.194 128.187 170.494 128.585 171.138C129.08 171.939 128.865 172.041 127.905 171.463C126.737 170.759 126.717 170.884 127.787 172.205C128.977 173.674 133 173.619 133 172.133C133 171.785 134.982 171.5 137.405 171.5C139.827 171.5 141.62 171.805 141.39 172.178C140.81 173.116 144.754 174.27 145.97 173.518C146.514 173.182 147.922 173.423 149.1 174.054C150.589 174.851 151.034 174.865 150.562 174.1C150.188 173.495 150.303 173 150.819 173C152.169 173 154.101 175.565 153.331 176.336C152.321 177.345 156.208 181.134 157.675 180.571C158.408 180.29 160.075 181.688 161.488 183.768C162.87 185.801 164 187.065 164 186.577C164 185.046 158.91 178.938 158.068 179.458C157.056 180.084 153.781 176.552 154.608 175.726C154.944 175.389 153.145 173.651 150.61 171.864C145.781 168.46 144.96 166.682 147.549 165.233C148.401 164.756 149.241 163.271 149.416 161.933C149.592 160.595 150.071 158.706 150.48 157.735C150.89 156.764 150.992 155.076 150.706 153.984C150.42 152.891 150.544 152.218 150.98 152.488C152.364 153.343 153.939 150.483 153.342 148.198C152.655 145.571 150.333 145.287 149.689 147.75C149.254 149.417 149.226 149.417 149.116 147.75C149.052 146.787 148.336 146 147.525 146C146.319 146 146.248 146.503 147.133 148.75C147.729 150.262 148.314 153.861 148.434 156.747C148.618 161.193 148.231 162.49 145.9 165.247C143.201 168.439 143.121 168.463 141.619 166.5C140.51 165.051 140.192 162.788 140.465 158.284C140.671 154.865 141.12 151.615 141.462 151.061C142.373 149.587 141.763 142.029 140.782 142.635C140.323 142.918 139.999 144.579 140.063 146.325C140.126 148.071 139.701 152.152 139.118 155.393C138.535 158.634 138.267 161.623 138.522 162.036C139.262 163.233 133.818 164.218 132.691 163.091C131.672 162.072 130.951 155.03 130.656 143.232C130.525 137.982 130.303 137.251 129.284 138.732C128.615 139.704 127.527 141.125 126.864 141.889C125.907 142.994 126.039 143.555 127.507 144.629C129.655 146.2 129.063 147.345 126.593 146.397C125.662 146.04 124.642 144.462 124.328 142.89C124.014 141.318 123.385 140.262 122.931 140.543C121.818 141.231 122.699 136.901 123.921 135.679C124.544 135.056 124.689 135.475 124.327 136.856C123.989 138.15 124.233 139 124.942 139C125.59 139 125.803 139.561 125.417 140.25C125.031 140.938 126.932 139.363 129.642 136.75C132.352 134.137 134.974 132 135.47 132C135.966 132 137.411 132.977 138.682 134.171C139.952 135.364 141.315 136.018 141.711 135.623C142.833 134.501 140.654 131.758 137.035 129.736C134.371 128.248 133.142 128.094 130.62 128.934C127.395 130.007 127.993 129.256 132.663 126.362C134.232 125.39 134.077 125.302 131.601 125.757C129.556 126.133 128.914 125.948 129.42 125.129C129.815 124.49 130.67 124.286 131.319 124.676C131.992 125.079 131.909 124.656 131.128 123.692C129.703 121.936 127.445 121.292 128.457 122.931C128.774 123.443 128.575 124.144 128.016 124.49C127.133 125.036 126.522 123.025 126.882 120.75C126.947 120.337 126.612 120 126.138 120C125.664 120 125.225 122.362 125.162 125.25C124.997 132.804 124.814 133.667 123.376 133.667C121.759 133.667 120.758 131.268 122.044 130.473C122.57 130.148 123 130.434 123 131.108C123 131.782 123.297 132.036 123.661 131.673C124.024 131.31 123.502 130.107 122.5 129C121.498 127.893 120.947 126.719 121.276 126.391C121.604 126.063 121.462 124.716 120.961 123.397C120.04 120.975 121.375 119.863 122.338 122.25C122.615 122.938 122.878 122.338 122.921 120.917C122.964 119.496 123.337 118.001 123.75 117.595C124.162 117.189 125.028 115.426 125.674 113.678C126.326 111.912 126.882 111.277 126.924 112.25C126.966 113.213 127.477 114 128.059 114C128.641 114 128.89 114.369 128.611 114.821C128.008 115.796 131.878 122.455 132.617 121.716C133.259 121.075 140.544 128.369 141.344 130.453C141.67 131.304 142.428 132 143.028 132C143.627 132 143.849 132.435 143.52 132.967C143.191 133.499 143.84 134.508 144.961 135.208C147.644 136.883 147.604 138.393 144.914 136.954C143.767 136.34 142.572 136.095 142.258 136.409C141.177 137.49 145.275 145.001 146.902 144.921C147.847 144.874 148.012 144.644 147.306 144.356C146.65 144.089 146.36 143.225 146.663 142.435C146.966 141.646 146.716 141 146.107 141C145.498 141 145 140.524 145 139.943C145 139.355 145.997 139.585 147.25 140.463C148.488 141.329 149.5 142.548 149.5 143.17C149.5 143.792 150.512 144.455 151.75 144.644C154.809 145.111 154.544 143.232 150.959 139.038C149.332 137.134 148 134.636 148 133.488C148 132.339 147.527 130.927 146.949 130.349C145.964 129.364 153.543 128.032 162.417 127.632C164.021 127.559 165.521 126.937 165.75 126.25C166.432 124.204 168.839 124.825 170.592 127.5C171.493 128.875 172.853 130 173.615 130C175.336 130 175.391 128.814 173.75 127.078C172.721 125.989 172.874 125.947 174.619 126.842C175.784 127.44 177.021 127.645 177.369 127.298C178.425 126.241 178.074 122.474 176.8 121.2C175.867 120.267 175.867 120 176.8 120C177.46 120 178 119.523 178 118.941C178 118.359 177.55 118.16 177 118.5C174.672 119.939 176.256 116.743 179.155 114.153C180.89 112.603 182.38 110.372 182.467 109.197C182.554 108.021 184.059 105.483 185.812 103.556C187.566 101.63 189 99.591 189 99.027C189 98.462 189.45 98 190 98C190.55 98 191 97.325 191 96.5C191 94.659 190.221 94.659 187 96.5C183.626 98.429 183.096 98.348 183.71 96C183.998 94.9 184.631 94 185.117 94C185.602 94 186 93.362 186 92.583C186 91.804 186.338 91.017 186.75 90.833C188.9 89.878 195.988 76 194.326 76C194.012 76 194.324 75.314 195.02 74.476C196.827 72.299 195.458 71.47 192.375 72.875C190.927 73.535 189.524 73.857 189.258 73.591C188.992 73.326 189.279 70.946 189.896 68.304C190.513 65.662 190.987 62.15 190.95 60.5C190.913 58.85 190.908 54.802 190.94 51.503C190.972 48.205 190.713 43.93 190.364 42.003C189.511 37.295 186.156 30.786 184.962 31.524C184.433 31.851 184 31.641 184 31.059C184 29.197 181.249 29.92 178.033 32.626ZM184.975 46.173C185.664 55.947 185.711 56.112 185.852 49.25C185.933 45.263 186.338 42 186.75 41.999C187.61 41.998 187.454 61.021 186.533 68.509C185.901 73.641 184.85 76.278 183.532 76.032C183.123 75.956 181.302 78.848 179.485 82.459L176.182 89.024L180.036 85.971C182.156 84.292 184.934 81.699 186.21 80.209C187.485 78.719 189.422 77.401 190.514 77.279C191.606 77.158 191.935 77.309 191.244 77.615C190.553 77.92 190.242 78.582 190.553 79.085C190.864 79.588 190.672 80 190.126 80C189.581 80 188.853 80.888 188.508 81.974C187.542 85.017 181.21 94.017 176.626 98.86C172.955 102.74 172.776 103.14 175 102.495C177.73 101.703 177.663 101.71 180.38 101.882C181.946 101.98 181.612 102.721 178.38 106.313C176.246 108.686 173.938 110.438 173.25 110.206C172.563 109.975 172 110.284 172 110.893C172 111.502 172.787 112.014 173.75 112.032C175.333 112.061 175.315 112.203 173.559 113.532C170.627 115.75 168.873 115.364 162.155 111.022C158.77 108.834 156 107.291 156 107.593C156 107.896 155.254 107.397 154.342 106.485C153.399 105.542 151.702 105.015 150.407 105.263C149.154 105.502 147.538 105.323 146.815 104.864C145.753 104.191 145.749 104.028 146.796 104.015C148.625 103.994 152.592 94.959 154.097 87.391C154.795 83.876 155.71 81 156.13 81C157.432 81 163.946 70.486 164.231 67.926C164.379 66.592 164.725 65.275 165 65C166.665 63.335 172.168 50.006 171.199 49.985C170.815 49.976 170.95 49.639 171.5 49.235C172.05 48.831 173.85 45.865 175.5 42.645C178.675 36.448 181.785 33.385 183.332 34.932C183.835 35.435 184.574 40.493 184.975 46.173ZM67.339 79C69.941 80.65 72.396 82 72.794 82C73.193 82 74.081 82.9 74.768 84C75.455 85.1 76.41 86 76.89 86C77.371 86 79.954 88.029 82.632 90.509C85.309 92.989 90.062 96.664 93.194 98.676C96.326 100.687 98.825 102.596 98.746 102.917C98.439 104.173 100.187 108 101.067 108C101.58 108 102 108.675 102 109.5C102 110.325 102.689 111 103.531 111C104.374 111 105.322 111.675 105.638 112.5C106.357 114.373 108 114.469 108 112.639C108 111.728 108.823 111.435 110.488 111.753C111.857 112.015 112.744 112.605 112.46 113.064C111.669 114.345 115.628 116.08 117.608 115.32C119.261 114.686 119.265 114.784 117.68 117.046C116.756 118.366 115.955 121.032 115.9 122.973C115.721 129.311 114.649 131.42 110.959 132.694C106.14 134.356 98.656 134.393 99.601 132.75C99.997 132.063 99.983 131.803 99.57 132.174C99.157 132.544 97.054 132.225 94.896 131.463C92.738 130.702 90.753 130.061 90.486 130.039C90.219 130.018 90 129.775 90 129.5C90 129.225 90 128.523 90 127.941C90 127.359 90.384 127.119 90.853 127.409C91.322 127.699 92.559 127.242 93.603 126.394C94.646 125.546 94.938 125.137 94.25 125.485C93.563 125.833 93 125.641 93 125.059C93 124.477 92.246 124 91.325 124C89.308 124 74.915 117.055 73.5 115.4C72.95 114.757 71.825 113.989 71 113.694C66.906 112.231 74.242 113.21 80.253 114.929C83.964 115.991 87 116.441 87 115.929C87 115.418 86.584 115 86.077 115C85.569 115 83.194 113.504 80.799 111.676C78.403 109.848 75.936 108.521 75.315 108.728C74.694 108.935 73.542 108.184 72.754 107.059C71.965 105.933 71.023 105.235 70.66 105.506C70.297 105.778 70.19 105.735 70.421 105.412C70.653 105.089 69.054 102.056 66.867 98.673C64.644 95.233 63.095 91.745 63.353 90.76C63.606 89.79 63.438 89.229 62.979 89.513C62.52 89.797 61.856 89.123 61.505 88.015C61.153 86.907 60.43 86 59.897 86C59.327 86 59.397 85.126 60.068 83.873C60.709 82.675 60.819 81.474 60.319 81.123C59.533 80.571 59.373 79.087 59.848 76.75C60.146 75.282 62.674 76.042 67.339 79ZM61.031 84.5C61.031 85.05 61.467 86.175 62 87C62.533 87.825 62.969 88.05 62.969 87.5C62.969 86.95 62.533 85.825 62 85C61.467 84.175 61.031 83.95 61.031 84.5ZM112.639 92.039C113.359 92.759 111.978 94.91 108.157 99.023C105.12 102.293 102.409 104.743 102.134 104.467C101.859 104.192 102.166 103.434 102.817 102.783C104.652 100.948 104.215 99.71 101.941 100.305C100.198 100.761 99.93 100.437 100.191 98.197C100.411 96.312 101.651 94.9 104.5 93.292C108.912 90.8 111.068 90.468 112.639 92.039ZM121 112.441C121 113.496 119.081 113.94 118.51 113.016C118.165 112.457 118.584 112 119.441 112C120.298 112 121 112.198 121 112.441ZM139.151 118.015C140.879 118.027 141.135 118.262 140.121 118.904C138.96 119.64 138.987 120.268 140.295 122.889C141.148 124.6 141.64 126 141.388 126C139.742 126 135.657 122.162 133.815 118.884C132.614 116.748 131.279 115 130.847 115C130.416 115 130.321 114.328 130.636 113.506C131.085 112.337 131.818 112.664 134.006 115.006C135.559 116.669 137.846 118.007 139.151 118.015ZM155.366 114.567C158.45 115.979 161.429 116.853 161.987 116.508C162.544 116.164 163 116.359 163 116.941C163 117.55 160.769 118.007 157.75 118.015C151.511 118.034 148.605 119.32 152.165 120.488L154.5 121.254L152 121.752C149.67 122.215 149.636 122.303 151.5 123.04C153.249 123.731 153.095 123.919 150.266 124.537C148.488 124.926 147.251 125.597 147.518 126.028C147.784 126.46 147.097 126.577 145.99 126.287C144.829 125.984 143.757 124.648 143.454 123.131C143.166 121.684 142.496 119.118 141.965 117.429C140.64 113.212 140.65 113.186 143.75 112.716C149.085 111.908 149.81 112.024 155.366 114.567ZM154.25 127.662C153.563 127.94 152.438 127.94 151.75 127.662C151.063 127.385 151.625 127.158 153 127.158C154.375 127.158 154.938 127.385 154.25 127.662ZM131.968 130.75C131.906 132.213 129.01 135.343 128.34 134.673C127.965 134.298 128.523 133.12 129.579 132.055C131.773 129.844 132.012 129.713 131.968 130.75ZM120.578 142.562C120.938 144.483 122.093 146.515 123.144 147.077C124.196 147.64 124.811 148.497 124.512 148.981C124.212 149.465 124.447 150.158 125.032 150.52C125.777 150.98 125.756 151.589 124.962 152.545C124.338 153.297 124.088 154.333 124.405 154.847C125.087 155.95 118.321 162.955 114.706 164.89C113.322 165.63 111.686 165.924 111.069 165.543C109.789 164.751 109.963 158 111.263 158C111.733 158 111.84 157.55 111.5 157C111.16 156.45 111.385 156 112 156C112.615 156 112.84 155.55 112.5 155C112.16 154.45 112.275 154 112.756 154C113.844 154 117.283 146.95 116.552 146.218C116.258 145.924 116.463 145.147 117.008 144.491C117.552 143.835 118.094 142.138 118.211 140.721C118.497 137.262 119.769 138.251 120.578 142.562ZM129.289 152.731C129.771 155.252 129.706 155.318 128.438 153.584C127.682 152.551 127.301 151.322 127.591 150.853C128.432 149.492 128.733 149.825 129.289 152.731ZM129.607 159.582C129.273 160.452 129 162.027 129 163.082C129 164.137 128.325 165 127.5 165C126.675 165 126 165.525 126 166.167C126 166.808 125.737 167.07 125.415 166.748C125.093 166.427 123.542 166.612 121.968 167.161C120.236 167.765 118.471 167.803 117.497 167.258C116.171 166.516 116.82 165.627 121.194 162.196C126.667 157.903 130.736 156.639 129.607 159.582ZM107.886 168.071C106.281 169.062 105.551 168.536 106.469 167.05C106.837 166.455 107.605 166.256 108.176 166.609C108.848 167.024 108.745 167.539 107.886 168.071ZM127.302 181.954C126.884 183.551 126.216 183.796 123.645 183.297C121.915 182.961 120.169 182.194 119.765 181.593C119.253 180.831 119.026 180.864 119.015 181.7C119.007 182.36 119.739 183.314 120.642 183.819C121.747 184.438 122.122 185.583 121.789 187.324C121.44 189.149 121.766 190.024 122.897 190.298C124.094 190.587 123.866 190.952 122 191.737C114.531 194.877 110.462 205.932 114.601 211.841C116.006 213.846 116.405 213.954 117.851 212.716C120.601 210.362 121.667 210.019 121.667 211.488C121.667 212.259 121.179 212.801 120.583 212.694C119.987 212.587 119.366 213.655 119.201 215.067C118.843 218.145 122.082 220.002 127.797 219.996C137.833 219.986 144.718 209.179 141.241 198.894C139.861 194.811 139.894 194.504 141.896 192.883C143.056 191.944 145.804 190.871 148.003 190.5C150.201 190.128 152 189.39 152 188.86C152 187.849 146.098 185.389 144.676 185.807C144.222 185.94 144.135 185.59 144.482 185.029C144.829 184.468 143.919 183.465 142.46 182.8C140.203 181.771 139.666 181.845 138.854 183.296C137.808 185.166 134.484 185.593 133.49 183.984C133.144 183.425 132.475 183.206 132.003 183.498C131.531 183.79 130.856 183.123 130.505 182.015C129.69 179.449 127.965 179.417 127.302 181.954ZM108.269 183.693C109.242 183.947 110.592 183.93 111.269 183.656C111.946 183.382 111.15 183.175 109.5 183.195C107.85 183.215 107.296 183.439 108.269 183.693ZM101.441 186.555C99.577 188.049 99.589 188.067 101.75 187.02C102.987 186.42 104 185.72 104 185.465C104 184.7 103.481 184.921 101.441 186.555ZM95.996 191.507C94.288 194.27 93.905 196.002 94.364 198.877C94.695 200.944 94.527 204.161 93.992 206.027C93.161 208.926 93.372 209.936 95.442 212.96C96.774 214.907 98.386 217.625 99.023 219C100.563 222.323 111.238 231.096 115.542 232.575C120.309 234.214 118.715 232.236 113.45 229.979C108.348 227.791 100.642 220.327 96.695 213.748C94.32 209.788 94.071 208.737 95.066 206.877C95.782 205.539 96.01 202.736 95.651 199.702C95.171 195.644 95.446 194.182 97.14 191.804C98.283 190.198 98.995 188.662 98.723 188.39C98.451 188.118 97.224 189.52 95.996 191.507ZM165.683 197.188C165.364 197.985 165.127 197.748 165.079 196.583C165.036 195.529 165.272 194.939 165.604 195.271C165.936 195.603 165.972 196.466 165.683 197.188ZM160.88 222.25C160.225 223.488 158.971 225.608 158.094 226.961C157.113 228.477 156.986 229.123 157.764 228.643C159.072 227.838 163.416 220 162.556 220C162.289 220 161.535 221.012 160.88 222.25Z" fill="#7B7B7B"/>
<path fill-rule="evenodd" clip-rule="evenodd" d="M177.783 33.303C175.977 35.12 173.981 37.708 173.348 39.053C168.504 49.338 166 54.984 166 55.623C166 56.034 165.067 57.364 163.927 58.577C162.787 59.791 161.73 61.395 161.578 62.142C161.426 62.889 161.043 64.175 160.727 65C160.411 65.825 159.631 68.192 158.995 70.259C157.449 75.287 155.452 77.152 152.428 76.392C149.658 75.697 149.768 75.281 149.825 86.245C149.859 92.744 149.453 94.727 147.301 98.576C145.891 101.099 144.234 103.337 143.619 103.549C142.687 103.869 139.743 104.161 129.643 104.934C129.172 104.97 129.001 105.563 129.264 106.25C129.569 107.046 128.703 107.576 126.88 107.709C124.526 107.881 123.895 107.437 123.328 105.209C122.949 103.719 122.608 101.298 122.569 99.83C122.531 98.361 121.431 96.022 120.123 94.631C118.619 93.029 117.985 91.481 118.396 90.409C118.948 88.971 118.811 88.912 117.481 90.016C116.295 91 115.634 91.034 114.758 90.158C113.17 88.57 107.801 88.703 104.507 90.412C103.01 91.189 100.931 93.228 99.888 94.945C97.647 98.629 96.575 98.3 90.547 92.079C88.373 89.836 86.068 88 85.426 88C84.784 88 80.937 85.361 76.879 82.135C65.589 73.162 59.92 70.981 57.008 74.49C55.656 76.119 56.136 84.383 57.77 87.62C58.291 88.654 60.019 92.122 61.609 95.327C63.199 98.532 65.529 102.285 66.787 103.668C68.044 105.051 69.783 107.266 70.652 108.591C72.203 110.959 72.176 111 69.115 111C67.402 111 66 111.427 66 111.949C66 113.214 70.91 116.814 79.756 122.037C83.747 124.394 86.786 126.547 86.51 126.823C86.235 127.099 84.432 127.265 82.504 127.193C77.369 127 78.224 128.566 84.545 130.931C87.594 132.072 91.054 133.904 92.233 135.003C93.412 136.101 95.08 137.05 95.939 137.112C101.064 137.479 104.985 138.114 108.615 139.165L112.73 140.357L110.964 144.428C109.993 146.668 108.883 150.449 108.498 152.832C107.927 156.36 107.08 157.659 103.936 159.832C100.436 162.251 98.254 165.139 101.25 163.387C101.938 162.985 101.712 163.556 100.75 164.657C99.787 165.757 99 167.158 99 167.77C99 169.592 100.982 170.26 102.544 168.964C103.345 168.299 104 168.105 104 168.533C104 168.96 104.855 168.536 105.901 167.59C106.979 166.614 108.057 166.283 108.392 166.825C108.717 167.351 107.895 168.494 106.566 169.365C104.752 170.553 104.026 170.643 103.654 169.724C103.336 168.941 103.129 169.057 103.079 170.048C103.036 170.9 100.577 174.138 97.615 177.245C88.509 186.799 83.748 201.425 85.978 213C90.001 233.877 108.197 248.786 128 247.43C136.452 246.851 139.503 246.033 146.753 242.404C155.205 238.174 163.31 230.034 165.134 223.945C165.785 221.775 166.715 220 167.202 220C167.689 220 167.997 219.437 167.886 218.75C167.775 218.063 168.038 216.688 168.47 215.695C169.52 213.284 168.511 198.263 167.048 194.534C166.122 192.172 165.696 191.867 164.958 193.034C164.448 193.84 164.031 195.175 164.031 196C164.031 197.193 164.202 197.229 164.87 196.176C165.356 195.41 165.611 197.937 165.476 202.176C165.28 208.337 165.364 208.786 166.007 205C166.591 201.554 166.687 202.326 166.413 208.292C166.042 216.391 162.955 225.708 161.035 224.522C160.457 224.164 160.262 224.518 160.58 225.347C160.886 226.145 160.586 227.138 159.914 227.553C159.059 228.082 158.946 227.887 159.537 226.905C160.258 225.708 160.133 225.704 158.692 226.872C156.86 228.358 156.372 229.506 158 228.5C158.55 228.16 159 228.304 159 228.821C159 230.206 151.151 236.381 146.157 238.924C139.819 242.151 128.799 244.025 122.34 242.974C116.194 241.974 108 238.592 108 237.056C108 236.475 107.395 236 106.655 236C105.915 236 104.453 234.995 103.405 233.767C101.854 231.95 101.825 231.786 103.25 232.89C105.961 234.989 105.507 232.173 102.75 229.789C95.337 223.379 92.093 219.7 91.508 217.036C91.144 215.379 90.431 213.766 89.923 213.452C88.465 212.551 88.848 198.867 90.484 193.432C92.24 187.599 96.29 181.279 102.142 175.24C107.71 169.495 109.455 168.598 111.359 170.502C113.302 172.445 116.411 172.414 118.053 170.436C118.953 169.351 120.141 169.086 121.926 169.571C123.342 169.955 125.4 170.376 126.5 170.506C127.6 170.636 128.368 171.308 128.207 171.999C128.004 172.87 128.617 173.046 130.207 172.572C134.334 171.342 141.459 171.461 142.856 172.785C143.783 173.663 144.595 173.751 145.424 173.063C146.257 172.372 147.292 172.516 148.729 173.523C150.579 174.818 150.795 174.812 150.598 173.467C150.475 172.63 150.065 171.957 149.687 171.973C148.623 172.015 145.275 168.582 145.66 167.843C145.849 167.482 145.141 167.412 144.087 167.687C142.788 168.027 141.756 167.434 140.881 165.844C139.588 163.497 139.56 162.522 140.598 156C140.977 153.62 140.828 152.82 140.131 153.5C139.568 154.05 138.994 156.426 138.856 158.78C138.649 162.309 138.201 163.162 136.305 163.638C131.732 164.786 131.305 163.861 130.622 151.333C129.923 138.497 129.986 137.61 131.833 134.25C134.463 129.466 139.55 132.277 143.981 140.962C146.333 145.573 146.571 145.761 146.571 143C146.571 141.9 146.218 141 145.786 141C145.354 141 145 140.498 145 139.885C145 138.599 149.859 141.522 151.718 143.925C152.688 145.179 152.943 145.214 152.968 144.094C152.986 143.321 151.945 141.296 150.655 139.594C149.365 137.892 148.073 135.375 147.783 134C147.494 132.625 146.907 130.662 146.478 129.638C145.781 127.97 146.043 127.85 148.975 128.495C151.35 129.016 152.053 128.895 151.532 128.052C151.032 127.243 151.831 126.962 154.157 127.125C161.547 127.643 166 127.032 166 125.5C166 122.922 169.013 123.86 170.797 126.994C172.736 130.402 174.459 131.021 173.488 127.961C172.925 126.188 173.167 126.004 175.342 126.55C177.536 127.1 177.799 126.89 177.479 124.839C176.898 121.111 176.49 119.574 175.783 118.444C175.419 117.863 176.888 115.673 179.048 113.577C181.207 111.481 182.716 109.35 182.401 108.84C181.839 107.93 184.754 103.646 188.898 99.292C192.239 95.782 191.349 94.781 186.903 97.049C184.65 98.199 182.594 98.927 182.334 98.667C181.721 98.055 184.247 94 185.241 94C185.658 94 186 93.325 186 92.5C186 91.675 186.358 91 186.795 91C187.942 91 193.73 79.116 194.539 75.1C195.12 72.221 194.978 71.799 193.612 72.35C188.419 74.444 188.708 74.695 189.635 68.901C190.9 61.004 190.587 42.094 189.121 37.767C188.057 34.626 183.595 30 181.629 30C181.32 30 179.589 31.487 177.783 33.303ZM184.695 35.956C186.798 38.413 186.976 39.332 187.659 51.215C188.213 60.843 187.025 71.767 184.82 77.317C184.195 78.893 183.412 79.666 183.045 79.072C182.683 78.488 181.114 80.37 179.557 83.255L176.726 88.5L181.613 84.078C184.301 81.646 187.305 78.834 188.289 77.828C190.017 76.062 192 75.393 192 76.575C192 78.302 182.942 91.997 178.808 96.52L173.994 101.787L178.497 101.599C180.974 101.495 183 101.486 183 101.579C183 101.671 181.215 103.7 179.034 106.086C176.707 108.631 175.498 110.69 176.108 111.067C176.69 111.426 175.718 112.615 173.902 113.765C170.372 116 168.137 115.653 163.119 112.09C158.602 108.883 151.024 104.912 149.735 105.078C146.428 105.503 145.99 104.927 147.988 102.782C150.189 100.42 154 89.391 154 85.385C154 84.062 154.925 82.197 156.056 81.24C158.444 79.219 163.813 70.202 164.291 67.41C164.47 66.359 165.543 63.7 166.673 61.5C167.804 59.3 169.29 55.768 169.975 53.651C171.367 49.348 177.315 38.44 179.735 35.75C181.75 33.511 182.632 33.547 184.695 35.956ZM68.235 79.215C71.131 80.983 74.005 82.895 74.623 83.465C75.24 84.034 77.649 86.075 79.975 88C82.302 89.925 85.846 92.901 87.852 94.614C89.859 96.326 92.916 98.451 94.648 99.336C96.518 100.292 98.654 102.681 99.912 105.223C102.1 109.643 107.101 114.196 107.722 112.333C107.913 111.76 109.174 111.502 110.523 111.76C111.873 112.018 112.75 112.595 112.474 113.042C111.878 114.007 115.875 115.515 117.946 115.107C119.057 114.888 119.131 115.137 118.267 116.178C117.648 116.924 116.869 120.002 116.536 123.017C116.202 126.033 115.737 129.175 115.501 130C115.265 130.825 114.807 133.061 114.483 134.97C113.837 138.775 113 140.297 113 137.667C113 136.651 112.196 136 110.941 136C109.809 136 109.128 135.602 109.428 135.116C109.735 134.619 107.125 134.461 103.465 134.755C97.951 135.197 97.044 135.048 97.533 133.775C97.946 132.698 97.174 132.052 94.805 131.496C92.987 131.07 91.162 130.615 90.75 130.485C90.338 130.356 89.438 130.178 88.75 130.089C88.063 130.001 88.83 128.841 90.456 127.512C93.178 125.287 93.258 125.049 91.456 124.505C88.8 123.703 74.624 116.774 74 115.972C73.725 115.618 72.6 114.777 71.5 114.102C69.762 113.036 70.024 112.939 73.5 113.36C75.7 113.627 79.032 114.175 80.905 114.579C83.474 115.132 84.125 115.011 83.554 114.088C83.138 113.415 82.145 113.114 81.347 113.42C80.549 113.727 80.14 113.583 80.437 113.102C80.735 112.62 80.224 111.613 79.302 110.863C77.838 109.673 77.709 109.722 78.281 111.25C78.642 112.213 78.691 113 78.39 113C77.583 113 70 105.198 70 104.368C70 103.977 69.372 102.947 68.604 102.079C66.035 99.175 59.324 85.388 58.793 81.923C57.727 74.974 60.151 74.279 68.235 79.215ZM112.934 91.938C114.071 92.657 113.138 94.17 108.434 99.238C105.17 102.753 102.345 105.248 102.155 104.781C101.966 104.315 102.325 103.313 102.954 102.555C104.264 100.978 102.711 99.442 100.923 100.547C100.227 100.978 99.962 100.215 100.173 98.389C100.737 93.512 108.901 89.386 112.934 91.938ZM134.821 115.25C137.735 118.389 139.217 118.811 138.334 116.25C137.823 114.767 137.959 114.793 139.227 116.421C140.05 117.478 140.52 119.119 140.272 120.069C140.023 121.019 140.347 122.78 140.991 123.983C142.563 126.92 141.484 127.748 139.006 125.506C136.242 123.004 136.479 124.335 139.35 127.432C140.642 128.827 142.016 129.651 142.402 129.264C142.789 128.877 142.809 129.335 142.446 130.28C142.067 131.268 142.257 132 142.893 132C143.502 132 144 132.689 144 133.531C144 134.374 144.64 135.308 145.423 135.609C146.205 135.909 147.1 136.817 147.41 137.626C148.343 140.057 142.704 136.279 140.497 132.995C138.473 129.983 134.185 128.739 128.645 129.556L125.5 130.019L128.433 128.635C131.339 127.263 131.345 127.244 129.058 126.518C126.375 125.667 125.038 127.176 125.015 131.083C125.006 132.706 124.442 133.667 123.5 133.667C122.083 133.667 121.552 132.629 121.931 130.601C122.024 130.106 121.798 128.981 121.43 128.101C120.349 125.517 120.412 121 121.53 121C122.096 121 123.42 118.782 124.472 116.072C126.158 111.728 126.536 111.343 127.66 112.822C128.362 113.745 128.951 115.213 128.968 116.085C128.998 117.579 134.784 123.55 135.504 122.829C135.689 122.645 134.537 120.583 132.944 118.247C131.351 115.911 130.278 114 130.559 114C130.84 114 130.62 113.159 130.07 112.131C129.52 111.104 129.367 109.966 129.73 109.604C130.092 109.241 130.812 109.744 131.328 110.722C131.845 111.7 133.417 113.737 134.821 115.25ZM121 112.5C121 113.333 120.111 114 119 114C116.537 114 116.354 112.315 118.75 111.689C119.713 111.438 120.612 111.18 120.75 111.116C120.888 111.052 121 111.675 121 112.5ZM155.661 114.112C158.872 115.273 162.162 116.422 162.972 116.666C164.268 117.055 164.268 117.219 162.972 118.038C161.921 118.703 161.868 118.974 162.785 118.985C163.741 118.996 163.808 119.491 163.045 120.916C161.932 122.995 155.044 125.547 148.216 126.41C143.356 127.024 142.838 126.354 141.587 117.833C141.001 113.84 141.162 113.098 142.701 112.699C146.549 111.7 150.049 112.082 155.661 114.112ZM121 118C121 118.55 120.213 118.993 119.25 118.985C117.754 118.972 117.718 118.828 119 118C120.887 116.78 121 116.78 121 118ZM125 122C125 123.1 125.173 124 125.383 124C125.594 124 126.002 123.1 126.29 122C126.577 120.9 126.405 120 125.906 120C125.408 120 125 120.9 125 122ZM128.333 123.5C128.333 124.22 128.933 124.579 129.667 124.298C130.4 124.016 131 123.657 131 123.5C131 123.343 130.4 122.984 129.667 122.702C128.933 122.421 128.333 122.78 128.333 123.5ZM177 124C177 124.55 176.802 125 176.559 125C176.316 125 175.84 124.55 175.5 124C175.16 123.45 175.359 123 175.941 123C176.523 123 177 123.45 177 124ZM130.809 133.045C128.859 135.682 128.474 135.851 127.933 134.31C127.513 133.113 127.995 132.148 129.405 131.363C132.851 129.443 133.18 129.837 130.809 133.045ZM121 135C121 135.55 120.523 136 119.941 136C119.359 136 119.16 135.55 119.5 135C119.84 134.45 120.316 134 120.559 134C120.802 134 121 134.45 121 135ZM126.49 136.016C126.144 136.575 125.443 136.774 124.931 136.457C124.419 136.141 124 136.332 124 136.882C124 137.432 124.457 138.165 125.016 138.51C125.575 138.856 125.728 139.67 125.355 140.319C124.982 140.969 125.851 140.432 127.286 139.126L129.894 136.751L129.083 139.626C128.638 141.207 127.778 142.393 127.173 142.262C126.567 142.131 126.329 142.694 126.643 143.512C126.957 144.33 127.616 145 128.107 145C128.598 145 129 145.675 129 146.5C129 149.348 126.222 147.989 124.402 144.25C123.398 142.188 122.615 139.938 122.663 139.25C122.711 138.563 122.806 137.325 122.875 136.5C122.944 135.675 123.927 135 125.059 135C126.199 135 126.838 135.454 126.49 136.016ZM121 141.354C121 143.546 121.866 145.643 123.5 147.405C126.137 150.25 126.675 152.465 124.984 153.51C124.425 153.856 124.257 154.607 124.611 155.18C125.328 156.34 118.017 163.423 113.913 165.545C111.461 166.813 111.2 166.734 110.143 164.414C108.887 161.657 110.225 157.302 113.924 152.107C115.775 149.507 116.426 147.554 117.709 140.75C118.463 136.746 121 137.211 121 141.354ZM141.024 144.5C140.888 145.05 140.628 147.075 140.448 149C140.151 152.16 140.214 152.262 141.102 150.047C141.643 148.698 141.903 146.673 141.679 145.547C141.455 144.421 141.161 143.95 141.024 144.5ZM147.619 148.75C148.079 150.262 148.462 153.637 148.47 156.25C148.494 163.891 149.982 162.23 150.187 154.333C150.245 152.087 150.666 151.318 151.634 151.69C153.172 152.28 153.492 149.324 152.123 147.165C151.489 146.165 151.105 146.416 150.588 148.165L149.898 150.5L148.981 148.25C147.682 145.06 146.616 145.451 147.619 148.75ZM129.245 152.5C129.804 155.426 128.473 155.915 127.725 153.058C127.299 151.427 127.684 150 128.55 150C128.669 150 128.982 151.125 129.245 152.5ZM129.741 161.584C129.56 164.122 128.88 165.215 127 165.989C123.58 167.396 116.784 167.725 116.423 166.5C116.01 165.096 127.164 157.126 128.712 157.72C129.466 158.009 129.884 159.58 129.741 161.584ZM147.1 164.295C145.835 166.402 145.857 166.423 147.579 164.774C148.57 163.824 149.166 162.832 148.903 162.569C148.64 162.306 147.829 163.083 147.1 164.295ZM153.59 175.855C153.299 176.325 154.173 177.753 155.531 179.029C156.889 180.305 158 180.99 158 180.552C158 180.114 158.787 180.373 159.75 181.128C161.334 182.37 161.37 182.335 160.137 180.761C159.387 179.805 158.435 179.231 158.02 179.487C156.997 180.12 153.824 176.509 154.664 175.669C155.032 175.301 155.06 175 154.726 175C154.391 175 153.88 175.385 153.59 175.855ZM127.45 182.345C127.002 184.129 126.332 184.638 124.92 184.269C123.473 183.89 123 184.288 123 185.883C123 187.623 123.604 188 126.393 188C128.487 188 130.006 188.574 130.362 189.5C130.748 190.507 130.317 191 129.052 191C128.014 191 125.164 191.858 122.717 192.907C119.247 194.394 117.799 195.783 116.134 199.223C112.951 205.799 113.646 211 117.709 211C119.516 211 125.066 205.917 124.413 204.859C124.121 204.387 124.597 204 125.47 204C127.794 204 139.821 193.802 139.918 191.75C139.963 190.787 140.9 189.1 142 188C144.524 185.476 144.52 184.349 141.985 182.992C140.399 182.143 139.844 182.243 139.377 183.461C138.468 185.828 130 185.319 130 182.897C130 180.077 128.121 179.67 127.45 182.345ZM160.564 186.293C160.94 187.279 161.499 187.834 161.807 187.526C162.115 187.219 161.808 186.412 161.124 185.733C160.136 184.753 160.022 184.868 160.564 186.293ZM94.232 197C94.232 198.925 94.438 199.713 94.689 198.75C94.941 197.787 94.941 196.213 94.689 195.25C94.438 194.287 94.232 195.075 94.232 197ZM133.06 201.047C129.924 203.526 128.207 205.56 128.63 206.297C129.01 206.959 128.944 207.158 128.485 206.741C127.578 205.918 123 209.735 123 211.314C123 211.845 122.229 212.843 121.288 213.532C118.737 215.396 121.163 217.752 126.45 218.545C131.732 219.337 136.268 217.253 138.984 212.785C141.461 208.714 142.623 202.003 141.023 201.014C140.367 200.609 139.868 199.989 139.915 199.638C140.41 195.939 139.209 196.186 133.06 201.047ZM94 211.378C94 211.585 94.787 212.373 95.75 213.128C97.336 214.371 97.371 214.336 96.128 212.75C94.821 211.084 94 210.555 94 211.378ZM164.158 214C164.158 215.375 164.385 215.938 164.662 215.25C164.94 214.563 164.94 213.438 164.662 212.75C164.385 212.063 164.158 212.625 164.158 214Z" fill="#505050"/>
<path fill-rule="evenodd" clip-rule="evenodd" d="M177.284 34.25C174.615 37.04 167 51.616 167 53.933C167 54.367 165.871 56.384 164.491 58.418C163.112 60.451 161.046 64.901 159.9 68.307C157.221 76.276 156.382 77.243 152.824 76.461L149.966 75.834L150.086 84.755C150.182 91.91 149.804 94.463 148.176 97.655C145.402 103.092 144.463 103.668 137 104.512C133.425 104.917 129.612 105.867 128.527 106.624C127.443 107.381 125.997 108 125.316 108C123.889 108 121.603 100.476 122.4 98.4C122.705 97.605 121.7 96.098 120.047 94.877C118.46 93.703 117.386 92.159 117.66 91.445C117.998 90.562 117.528 90.311 116.192 90.66C115.11 90.943 113.923 90.685 113.554 90.087C112.005 87.581 104.109 89.754 100.955 93.555C99.895 94.831 100.4 94.726 103.027 93.124C106.867 90.784 112.793 90.297 113.546 92.261C114.148 93.829 102.402 106.459 101.579 105.128C101.25 104.596 101.662 103.481 102.492 102.65C103.84 101.303 103.76 101.105 101.752 100.817C100.04 100.571 99.545 99.895 99.687 97.997C99.789 96.624 99.639 96.063 99.353 96.75C98.456 98.908 96.854 98.152 91.406 93C88.499 90.25 85.612 88 84.992 88C84.372 88 81.356 85.956 78.29 83.459C71.31 77.773 65.27 74.204 61.274 73.405C57.24 72.598 55.5 75.472 56.445 81.383C57.342 87.003 63.012 98.498 67.936 104.682C70.171 107.49 72 110.059 72 110.393C72 110.727 70.572 111 68.826 111H65.651L68.076 113.61C70.96 116.715 80.31 122.863 84.221 124.227C88.006 125.546 87.71 126.633 83.28 127.681L79.561 128.561L84.53 130.424C87.264 131.449 90.3 133.118 91.278 134.132C93.225 136.151 94.379 136.501 104 137.983C111.897 139.2 113 139.227 113 138.201C113 136.658 106.295 135 100.057 135C94.716 135 93.935 134.783 94.938 133.575C95.917 132.395 95.293 131.912 91.31 130.763L86.5 129.376L89.939 127.565L93.378 125.753L88.81 124.019C81.537 121.258 69.051 113.616 70.1 112.567C70.35 112.317 72.483 112.546 74.841 113.076C77.199 113.605 79.549 113.779 80.064 113.46C80.579 113.142 81 113.359 81 113.941C81 114.523 81.505 115 82.122 115C82.919 115 82.897 114.581 82.049 113.559C81.392 112.767 80.185 112.375 79.368 112.689C74.955 114.383 57.471 87.021 58.201 79.561C58.837 73.054 65.527 75.676 80.87 88.445C85.701 92.466 91.477 96.908 93.707 98.315C96.262 99.928 98.558 102.521 99.918 105.33C102.061 109.757 103.881 110.965 109.202 111.493C110.688 111.641 112.633 112.49 113.523 113.381C114.414 114.271 116.037 115 117.13 115C118.382 115 118.853 115.429 118.402 116.158C118.008 116.795 117.094 121.301 116.37 126.17C115.647 131.039 113.942 137.83 112.583 141.262C111.223 144.693 109.581 149.644 108.933 152.264C108.141 155.467 106.731 157.89 104.628 159.66C102.907 161.107 101.484 162.563 101.465 162.896C101.445 163.228 100.809 164.625 100.051 166C98.786 168.295 98.809 168.387 100.336 167.128C102.275 165.528 102.582 166.937 100.75 169.023C100.063 169.806 100.513 169.602 101.75 168.568C103.466 167.135 104.007 167.023 104.03 168.095C104.052 169.089 104.359 168.988 105.08 167.75C106.254 165.734 109 165.391 109 167.259C109 168.858 105.232 171.261 103.959 170.475C103.432 170.149 103 170.568 103 171.406C103 172.244 102.144 173.388 101.098 173.948C97.445 175.903 90.073 187.024 88.016 193.683C80.071 219.407 97.154 245.298 123.063 246.797C136.428 247.571 146.305 244.23 155.504 235.822C164.987 227.156 169.649 216.276 168.704 205.015C168.397 201.344 167.453 196.802 166.607 194.921L165.068 191.5L165.784 195.5C166.178 197.7 166.446 203.201 166.38 207.725C166.28 214.555 165.783 216.922 163.455 221.682C154.608 239.764 131.025 248.297 112.52 240.112C110.034 239.012 108 237.637 108 237.056C108 236.475 107.395 236 106.655 236C105.915 236 104.453 234.995 103.405 233.767C101.854 231.95 101.825 231.786 103.25 232.89C105.961 234.989 105.507 232.173 102.75 229.789C95.337 223.379 92.093 219.7 91.508 217.036C91.144 215.379 90.431 213.766 89.923 213.452C88.465 212.551 88.848 198.867 90.484 193.432C92.24 187.599 96.29 181.279 102.142 175.24C107.71 169.495 109.455 168.598 111.359 170.502C113.291 172.433 116.408 172.418 118.026 170.469C119.074 169.205 118.982 168.707 117.496 167.62C116.505 166.896 116.003 165.804 116.38 165.194C116.761 164.578 115.827 164.732 114.283 165.538C111.788 166.842 111.371 166.817 110.25 165.305C108.38 162.78 108.678 161.274 112.373 154.596C114.228 151.243 116.338 146.137 117.062 143.25C118.487 137.566 121 136.044 121 140.865C121 142.441 122.013 145.018 123.25 146.591C126.85 151.168 126.281 155.625 121.5 160.304L117.5 164.219L122.103 160.61C128.424 155.653 130.203 155.794 129.807 161.222C129.507 165.349 129.391 165.474 124.602 166.822C119.412 168.282 119.771 169.954 125.281 169.985C126.811 169.993 128.312 170.649 128.616 171.443C129.037 172.538 129.768 172.658 131.65 171.943C135.018 170.662 141.352 170.752 142.699 172.099C143.861 173.261 148 172.439 148 171.047C148 170.596 146.441 169.488 144.536 168.584C142.63 167.68 140.493 166.166 139.786 165.22C138.998 164.166 137.145 163.5 135 163.5C131.517 163.5 131.497 163.475 130.978 158.311C130.691 155.458 130.073 152.758 129.604 152.311C129.135 151.865 129.063 152.512 129.443 153.75C129.826 154.997 129.708 156 129.179 156C128.653 156 127.91 154.336 127.529 152.303C127.148 150.27 125.984 147.524 124.944 146.202C123.06 143.807 122.479 141.556 121.535 133C120.908 127.312 119.525 120.659 118.689 119.307C118.336 118.735 118.993 117.42 120.149 116.384L122.25 114.5L121.52 118C120.534 122.723 122.228 120.868 124.517 114.717C126.495 109.401 128 107.784 128 110.973C128 114.378 130.67 119.753 132.973 120.986C134.98 122.06 134.951 121.883 132.518 118.206C129.578 113.763 128.19 107.619 129.89 106.568C130.594 106.133 131 106.824 131 108.456C131 110.01 132.376 112.51 134.473 114.765C137.857 118.404 137.947 118.436 137.979 116L138.012 113.5L139.343 116.049C140.074 117.451 140.973 120.785 141.339 123.456L142.005 128.314L139.812 126.407C138.607 125.358 139.774 127.334 142.406 130.798C145.038 134.262 147.274 137.637 147.375 138.298C147.621 139.899 153 145.207 153 143.848C153 143.265 151.65 141.083 150 139C148.35 136.917 147 134.471 147 133.566C147 132.66 146.066 130.656 144.925 129.113C143.784 127.57 142.598 124.325 142.29 121.904C141.981 119.482 141.293 116.655 140.761 115.623C138.581 111.393 146.999 110.759 157 114.399C162.54 116.415 163.547 117.153 163.818 119.4C164.091 121.657 163.515 122.319 159.818 123.996C157.443 125.074 153.925 125.998 152 126.048C150.075 126.099 147.6 126.536 146.5 127.018C145.257 127.564 147.528 127.689 152.5 127.349C156.9 127.049 161.588 126.735 162.917 126.651C164.246 126.568 165.521 125.938 165.75 125.25C166.474 123.078 168.766 123.887 171.416 127.25C172.825 129.037 173.983 129.964 173.989 129.309C173.995 128.654 173.55 127.84 173 127.5C172.45 127.16 172 126.223 172 125.418C172 124.179 172.384 124.206 174.5 125.592C175.875 126.493 177 126.776 177 126.222C177 125.668 176.325 124.955 175.5 124.638C174.675 124.322 174 123.583 174 122.996C174 122.272 174.722 122.305 176.25 123.101C178.455 124.248 178.451 124.218 176.076 121.636C174.742 120.186 174.206 119 174.885 119C175.563 119 175.844 118.556 175.509 118.014C175.173 117.471 176.497 115.625 178.45 113.91C180.402 112.196 182 109.877 182 108.758C182 107.639 183.8 104.771 186 102.384C190.954 97.01 191.065 95.657 186.392 97.61C184.407 98.439 182.584 98.917 182.339 98.672C182.094 98.427 184.016 94.946 186.611 90.935C190.903 84.3 195 75.523 195 72.964C195 72.392 193.715 72.613 192.057 73.471C188.415 75.354 187.759 74.425 189.186 69.406C191.021 62.953 190.592 42.267 188.518 37.221C185.642 30.223 182.046 29.272 177.284 34.25ZM185.727 36.705C187.122 38.833 187.576 42.054 187.856 51.826C188.337 68.589 185.548 82 181.581 82C180.829 82 179.955 82.675 179.638 83.5C178.687 85.978 180.042 85.235 185.103 80.5C189.324 76.552 192 74.987 192 76.466C192 78.015 184.328 90.441 180.248 95.5L175.409 101.5L179.954 101.157L184.5 100.813L179.5 106.015C175.281 110.405 174.89 111.109 177 110.526C179.422 109.857 179.407 109.915 176.5 112.407C171.486 116.705 169.68 116.675 162.74 112.182C156.119 107.895 153.167 106.494 148.787 105.559L146.074 104.98L148.535 101.353C151.198 97.429 152.626 93.011 153.653 85.513C154.102 82.238 154.84 80.593 155.996 80.291C157.689 79.848 161.625 72.714 166.363 61.5C177.662 34.76 181.353 30.033 185.727 36.705ZM121 112.333C121 114.539 119.937 114.928 117.251 113.704L114.701 112.543L117.1 111.871C120.721 110.858 121 110.891 121 112.333ZM127 127.5C127 128.367 127.595 128.709 128.5 128.362C129.325 128.045 130 127.657 130 127.5C130 127.343 129.325 126.955 128.5 126.638C127.595 126.291 127 126.633 127 127.5ZM124.826 131.368C124.557 133.672 124.788 134.888 125.449 134.642C126.027 134.426 126.398 133.775 126.273 133.195C126.149 132.615 127.641 131.613 129.59 130.97C131.539 130.327 132.941 129.608 132.706 129.372C132.47 129.137 131.103 129.39 129.668 129.936C127.598 130.723 126.873 130.595 126.156 129.315C125.462 128.074 125.155 128.547 124.826 131.368ZM143.382 129.552C143.723 130.442 143.555 130.843 142.989 130.493C142.445 130.157 142 129.459 142 128.941C142 127.503 142.717 127.82 143.382 129.552ZM132 132C130.9 133.1 130 134.498 130 135.107C130 135.716 129.405 135.986 128.678 135.707C127.951 135.428 126.798 136.094 126.115 137.187C125.002 138.969 125.088 139.107 126.937 138.52C128.655 137.975 129 138.294 129 140.433C129 141.845 128.438 143.007 127.75 143.015C126.831 143.027 126.807 143.226 127.66 143.769C128.298 144.174 129.035 145.855 129.299 147.503C129.563 149.151 129.757 147.566 129.731 143.98C129.679 136.881 130.865 133.678 134.207 131.889C136.114 130.869 136.782 131.185 139.902 134.59C141.846 136.711 144.034 138.535 144.765 138.642C145.496 138.749 144.167 136.848 141.811 134.418C137.076 129.532 134.984 129.016 132 132ZM121 135.5C121 136.325 120.55 137 120 137C119.45 137 119 136.325 119 135.5C119 134.675 119.45 134 120 134C120.55 134 121 134.675 121 135.5ZM144.564 141.293C144.94 142.279 145.499 142.834 145.807 142.526C146.115 142.219 145.808 141.412 145.124 140.733C144.136 139.753 144.022 139.868 144.564 141.293ZM141.158 146C141.158 147.375 141.385 147.938 141.662 147.25C141.94 146.563 141.94 145.438 141.662 144.75C141.385 144.063 141.158 144.625 141.158 146ZM147.086 146.5C147.19 148.394 148.856 151.584 148.914 150C148.945 149.175 148.533 147.825 148 147C147.467 146.175 147.055 145.95 147.086 146.5ZM151.063 148.95C151.02 151.318 151.323 152.077 152.03 151.37C152.713 150.687 152.734 149.522 152.094 147.92C151.185 145.646 151.123 145.708 151.063 148.95ZM140.079 150.583C140.127 151.748 140.364 151.985 140.683 151.188C140.972 150.466 140.936 149.603 140.604 149.271C140.272 148.939 140.036 149.529 140.079 150.583ZM149.252 155.5C149.263 157.7 149.468 158.482 149.707 157.238C149.946 155.994 149.937 154.194 149.687 153.238C149.437 152.282 149.241 153.3 149.252 155.5ZM139.232 159C139.232 160.925 139.438 161.713 139.689 160.75C139.941 159.787 139.941 158.213 139.689 157.25C139.438 156.287 139.232 157.075 139.232 159ZM138.614 184.563C138.284 185.423 137.557 185.844 136.998 185.499C135.536 184.595 132.281 185.826 131.626 187.531C131.249 188.516 132.411 189.635 135.222 190.993C140.255 193.425 140 193.416 140 191.155C140 190.14 140.898 188.497 141.996 187.503C143.52 186.125 143.728 185.377 142.874 184.348C141.374 182.541 139.351 182.643 138.614 184.563ZM127.5 192.672C120.895 194.126 117.022 197.594 116.731 202.317C116.657 203.518 116.189 204.781 115.691 205.125C114.42 206.003 115.858 210 117.445 210C119.407 210 121.119 207.475 120.41 205.627C119.997 204.549 120.317 204 121.362 204C122.405 204 122.751 204.591 122.387 205.75C121.903 207.29 121.997 207.318 123.168 205.988C123.901 205.157 127.128 202.255 130.34 199.54C135.68 195.026 136.027 194.493 134.398 193.302C132.606 191.992 131.183 191.862 127.5 192.672ZM131.732 203.75C128.882 206.363 126.048 208.959 125.433 209.521C124.28 210.574 122 214.47 122 215.387C122 216.382 128.77 217.767 131.283 217.286C134.228 216.723 139.242 211.849 139.527 209.273C139.634 208.298 140.058 206.711 140.469 205.748C141.529 203.261 140.246 199 138.438 199C137.6 199 134.582 201.137 131.732 203.75ZM137 212C137 212.55 136.55 213 136 213C135.45 213 135 212.55 135 212C135 211.45 135.45 211 136 211C136.55 211 137 211.45 137 212Z" fill="black"/>
</svg>
