<?xml version='1.0' encoding='UTF-8'?>
<svg xmlns="http://www.w3.org/2000/svg" xmlns="http://www.w3.org/2000/svg" viewBox="0 0 1024 1536" width="1000" height="1000"><path d="M759 186C759.33 186.66 759.66 187.32 760 188C760.77 188.15 761.53 188.3 762.32 188.46C767.13 189.43 769.91 192.31 773 196C779.35 206.5 782.3 218.13 785 230C785.3 231.28 785.6 232.56 785.9 233.88C789.12 248.72 790.1 263.66 790.69 278.81C790.74 280.02 790.78 281.23 790.83 282.48C790.87 283.63 790.91 284.78 790.95 285.96C790.98 286.98 791.02 288 791.05 289.05C791 292.12 790.58 294.98 790 298C790.66 298.33 791.32 298.66 792 299C791.67 299.33 791.34 299.66 791 300C790.73 302.08 790.53 304.16 790.35 306.25C790.18 308.2 790.18 308.2 790 310.2C789.94 310.89 789.88 311.58 789.82 312.29C788.04 332.29 784.85 350.77 779 370C778.44 371.87 777.87 373.75 777.31 375.62C776.88 377.08 776.44 378.54 776 380C776.57 379.42 777.14 378.84 777.72 378.24C780.33 375.59 782.95 372.95 785.56 370.31C786.46 369.4 787.35 368.49 788.28 367.55C799.61 356.13 799.61 356.13 806.19 353.94C809 354 809 354 811.31 355.81C814.29 359.67 814.19 362.14 814 367C807.5 405.31 783.76 443.89 760 474C758.62 475.77 757.25 477.54 755.88 479.31C754.92 480.54 753.96 481.77 753 483C754.22 482.59 755.43 482.18 756.69 481.75C757.5 481.48 758.31 481.22 759.15 480.95C761.22 480.26 763.27 479.54 765.32 478.8C766.45 478.42 767.58 478.03 768.75 477.62C769.82 477.25 770.88 476.87 771.98 476.48C775 476 775 476 777.83 477.27C780.62 479.49 780.91 480.41 781.44 483.94C781.19 497.1 766.31 510.05 758 519C757.42 519.64 756.85 520.29 756.25 520.95C748.65 529.04 739.22 535.85 730 542C730.89 541.97 731.78 541.93 732.7 541.89C733.87 541.87 735.04 541.84 736.25 541.81C737.41 541.78 738.57 541.74 739.77 541.71C743.25 542.02 744.59 542.5 747 545C748.21 550.93 745.9 554.74 742.77 559.57C738.15 565.91 732.8 570.17 726 574C726.86 578.27 728.89 581.75 730.94 585.56C732 588 732 588 732 592C732.66 592.33 733.32 592.66 734 593C731.12 597.21 728.96 598.76 724 600C724.33 600.54 724.66 601.07 725 601.62C726.33 604.77 726.46 606.59 726 610C724.19 614.01 722.2 617.17 718.56 619.69C714.68 620.16 713.27 619.2 710 617C707.67 614.78 705.44 612.5 703.25 610.16C700.98 607.98 698.75 606.51 696 605C695.83 605.82 695.66 606.64 695.48 607.48C695.24 608.56 695 609.64 694.75 610.75C694.52 611.82 694.29 612.88 694.05 613.98C692.6 618.15 690.57 620.13 686.75 622.25C686.17 622.5 685.6 622.75 685 623C680.96 618.39 678.42 613.85 676.19 608.12C673.32 601.07 669.42 596.26 664 591C663.54 590.42 663.08 589.83 662.61 589.23C660.08 587.29 658.09 587.67 655 588C652.36 588.95 652.36 588.95 649.81 590.31C645 592.65 640.33 594.12 635.12 595.32C634.07 595.66 634.07 595.66 633 596C632.67 596.66 632.34 597.32 632 598C632.72 598.25 633.44 598.5 634.19 598.75C637.86 600.38 641.16 602.32 643 606C643.44 608.81 643.44 608.81 643 612C638.27 617.64 632.12 619.09 625 620C618.69 620.3 612.39 620.2 606.08 620.05C604.39 620.01 602.69 620 601 620C601.33 619.34 601.66 618.68 602 618C600.68 618 599.36 618 598 618C598.57 619.21 598.57 619.21 599.15 620.44C600.56 623.47 601.98 626.5 603.39 629.52C604 630.83 604.61 632.13 605.22 633.43C614 652.16 614 652.16 614 656C614.66 656.33 615.32 656.66 616 657C619.59 671.69 618.78 685.11 611.12 698.38C609.75 700.59 608.41 702.59 606.55 704.43C601.42 709.64 600.67 714.74 599.62 721.81C596.39 740.28 589.73 757.99 574.25 769.62C570.94 771.92 567.79 773.62 564 775C564 775.99 564 776.98 564 778C564.79 778.09 565.57 778.18 566.38 778.28C571.09 779.22 575.4 780.84 579.88 782.56C580.8 782.92 581.73 783.28 582.69 783.64C600.3 790.55 616.85 799.62 631.71 811.35C633.8 813.19 633.8 813.19 636 813C637.15 814.42 638.29 815.84 639.43 817.27C641.78 819.86 644.56 821.73 647.43 823.7C647.95 824.13 648.46 824.56 649 825C649 825.66 649 826.32 649 827C649.66 827 650.32 827 651 827C651 827.66 651 828.32 651 829C651.58 829.24 652.15 829.49 652.75 829.74C657.41 832.35 660.59 836.96 664 841C664.46 841.54 664.92 842.09 665.39 842.65C673.72 852.58 681.05 863.06 688 874C688.71 875.09 689.42 876.18 690.14 877.3C701.42 895.73 708.56 916.96 713 938C713.2 938.94 713.4 939.88 713.61 940.84C725.18 996.26 714.41 1055.73 683.53 1103.26C662.91 1133.97 637.1 1158.62 605 1177C604.36 1177.37 603.72 1177.74 603.06 1178.12C582.1 1190.08 559.65 1197.47 536 1202C536 1202.66 536 1203.32 536 1204C534.89 1203.81 533.77 1203.63 532.62 1203.44C529.44 1203.04 526.59 1203.06 523.41 1203.44C517.9 1204.04 512.41 1204.33 506.88 1204.56C505.44 1204.63 505.44 1204.63 503.98 1204.69C501.65 1204.8 499.33 1204.9 497 1205C501.95 1205 506.9 1205 512 1205C512 1205.33 512 1205.66 512 1206C490.88 1208 490.88 1208 483 1204C480.34 1203.48 477.71 1203.27 475 1203C474.67 1203.66 474.34 1204.32 474 1205C474 1204.34 474 1203.68 474 1203C472.23 1202.78 472.23 1202.78 470.43 1202.55C445.04 1199.19 420.59 1192.02 397.97 1179.82C397 1179.42 397 1179.42 396 1179C395.34 1179.33 394.68 1179.66 394 1180C394 1179.01 394 1178.02 394 1177C393.34 1176.75 392.68 1176.51 392 1176.25C388.24 1174.68 384.63 1172.85 381 1171C380.34 1170.67 379.68 1170.34 379 1170C378.34 1169.34 377.68 1168.68 377 1168C375.86 1167.13 374.72 1166.28 373.56 1165.44C369.09 1162.13 364.85 1158.56 360.61 1154.95C358.11 1153.08 355.9 1152.11 353 1151C351.87 1149.06 351.87 1149.06 351 1147C348.89 1144.41 347.28 1143.57 344 1143C343.88 1142.38 343.75 1141.76 343.62 1141.12C343.13 1138.81 343.13 1138.81 341 1137C340.34 1137.33 339.68 1137.66 339 1138C339 1137.34 339 1136.68 339 1136C338.01 1136 337.02 1136 336 1136C335.92 1135.24 335.84 1134.47 335.75 1133.69C334.84 1130.43 333.79 1129.78 331 1128C330.34 1127.34 329.68 1126.68 329 1126C329 1125.34 329 1124.68 329 1124C327.78 1122.24 327.78 1122.24 326.19 1120.44C325.67 1119.82 325.14 1119.2 324.61 1118.56C322.98 1116.75 322.98 1116.75 320 1116C319.9 1115.24 319.79 1114.47 319.69 1113.69C318.95 1110.82 318.33 1109.77 316 1108C315.34 1108 314.68 1108 314 1108C313.79 1106.89 313.59 1105.77 313.38 1104.62C312.04 1099.14 309.05 1094.69 306 1090C305.34 1090.33 304.68 1090.66 304 1091C303.92 1089.89 303.84 1088.77 303.75 1087.62C303.42 1083.94 303.42 1083.94 300.94 1082.56C300.3 1082.38 299.66 1082.19 299 1082C299.33 1081.34 299.66 1080.68 300 1080C299.49 1077.14 298.48 1074.57 297.36 1071.9C297.04 1071.11 296.71 1070.32 296.37 1069.5C296.02 1068.65 295.67 1067.81 295.31 1066.94C291.31 1057.11 288.06 1047.15 285 1037C284.67 1036.01 284.34 1035.02 284 1034C283.47 1032.27 282.95 1030.54 282.44 1028.81C282.17 1027.91 281.9 1027.01 281.62 1026.08C281.42 1025.39 281.21 1024.71 281 1024C281.33 1023.67 281.66 1023.34 282 1023C281.67 1022.38 281.34 1021.76 281 1021.12C279.67 1018.3 279.98 1017.13 280.53 1014.02C281.23 1009.24 280.86 1004.55 280.56 999.75C279.87 988.08 279.97 976.72 280.94 965.06C281.02 963.97 281.11 962.88 281.2 961.76C281.46 958.51 281.73 955.25 282 952C282.1 950.85 282.19 949.7 282.29 948.51C282.53 945.67 282.76 942.84 283 940C283.66 940 284.32 940 285 940C285.11 938.72 285.22 937.43 285.34 936.11C285.92 930.97 287.12 926.15 288.56 921.19C288.83 920.28 289.09 919.37 289.36 918.43C298.59 887.66 314.67 860.4 336.47 836.88C338.21 834.97 338.21 834.97 339 832C340.66 830.98 342.32 829.98 344 829C345.54 827.52 347.04 826 348.5 824.44C360.54 812.18 375.74 801.86 391 794C391 793.34 391 792.68 391 792C391.85 791.9 392.69 791.79 393.56 791.68C397.35 790.93 400.48 789.64 404 788.06C408.29 786.15 412.52 784.41 417 783C416.72 782.37 416.45 781.74 416.16 781.09C415.8 780.24 415.44 779.38 415.06 778.5C414.7 777.66 414.34 776.83 413.97 775.97C411.77 769.24 411.85 763.36 413.06 756.5C413.2 755.72 413.34 754.93 413.48 754.13C417.25 734.37 427.9 717.07 438.64 700.34C440.17 698.16 440.17 698.16 440 696C440.68 695.4 441.36 694.8 442.06 694.19C442.7 693.47 443.34 692.74 444 692C443.72 689.61 443.72 689.61 443 687C443.42 682.4 444.42 678.33 446 674C446.66 674 447.32 674 448 674C448.68 672.34 449.34 670.67 450 669C450.25 668.38 450.51 667.77 450.77 667.13C451.03 666.47 451.29 665.81 451.56 665.12C451.94 664.2 451.94 664.2 452.32 663.26C454.15 657.19 454.18 650.97 454.19 644.69C454.2 643.88 454.21 643.07 454.22 642.23C454.23 640.15 454.12 638.08 454 636C453.34 635.34 452.68 634.68 452 634C451.79 635.13 451.58 636.26 451.37 637.42C445.45 668.22 432.85 697.44 414.27 722.76C413.82 723.37 413.37 723.99 412.9 724.63C412.04 725.8 411.16 726.96 410.27 728.12C406.02 733.85 404.94 739.54 404.19 746.5C403.29 753.28 401.38 759.18 399.09 765.57C398.14 768.55 397.64 771.03 397.44 774.12C396.95 778.42 396.12 780.07 393 783C390 784 390 784 387.5 782.88C382.65 779.24 381.46 774.72 380 769C379.59 769.59 379.18 770.19 378.75 770.8C376.84 773.54 374.92 776.27 373 779C371.96 780.49 371.96 780.49 370.89 782.01C370.21 782.97 369.52 783.94 368.81 784.94C368.18 785.83 367.55 786.73 366.89 787.65C364.13 791.08 361.45 793.43 357 794C356.01 793.67 355.02 793.34 354 793C354 792.34 354 791.68 354 791C352.35 790.67 350.7 790.34 349 790C349.99 789.34 350.98 788.68 352 788C352.33 787.67 352.66 787.34 353 787C352.34 786.67 351.68 786.34 351 786C348.98 787.64 346.98 789.31 345 791C345 791.33 345 791.66 345 792C338.13 791.13 338.13 791.13 337 790C336.3 781.62 339.04 774.67 344 768C342.02 768.66 340.04 769.32 338 770C338.33 770.66 338.66 771.32 339 772C338.01 772 337.02 772 336 772C336 771.34 336 770.68 336 770C333.69 769.67 331.38 769.34 329 769C328.06 766.38 328.06 766.38 328 763C332 758.24 337.76 755.22 343.12 752.25C352.03 747.17 360.53 741.57 367.73 734.21C370 732 370 732 372 732C372.37 731.2 372.37 731.2 372.75 730.38C374 728 374 728 375.8 725.67C379.17 720.62 380.66 714.67 382.5 708.94C382.93 707.63 383.35 706.32 383.78 705.01C384.7 702.19 385.62 699.36 386.53 696.54C387.8 692.6 389.1 688.68 390.4 684.75C391.48 681.47 392.56 678.19 393.64 674.91C394.17 673.32 394.69 671.74 395.22 670.16C398.42 660.51 401.12 651.01 403 641C401.18 639.42 401.18 639.42 399 638C395.81 638.27 395.81 638.27 392.31 639.25C379.94 642.06 368.4 642.49 355.81 640.75C354.93 640.63 354.04 640.51 353.13 640.38C348.28 639.62 344.23 638.65 340 636C338 633 338 633 338.06 630.06C339.22 626.29 340.86 625.26 344 623C344 622.34 344 621.68 344 621C343.34 621 342.68 621 342 621C342 621.66 342 622.32 342 623C341.01 623 340.02 623 339 623C338.67 621.68 338.34 620.36 338 619C337.05 618.84 336.11 618.68 335.13 618.52C306.39 613.54 269.07 602.31 249.97 578.7C249 577 249 577 248.88 573.75C250.22 570.47 250.89 569.68 254 568C256.99 567.61 259.93 567.67 262.94 567.75C263.74 567.76 264.53 567.76 265.36 567.77C269.36 567.82 273.1 568.02 277 569C275.59 568.04 274.17 567.08 272.75 566.12C271.96 565.59 271.17 565.06 270.36 564.51C268.28 563.18 266.22 562.05 264 561C264 560.34 264 559.68 264 559C263 558.69 263 558.69 261.98 558.38C257.9 556.49 254.8 553.76 251.38 550.88C241 541.55 241 541.55 229 535C227.31 533.36 225.65 531.68 224 530C222.27 528.47 220.5 526.99 218.73 525.5C193.12 503.87 193.12 503.87 190.81 490.06C190.69 486.92 190.89 486.17 192.69 483.44C195 482 195 482 199 482C199.33 481.34 199.66 480.68 200 480C200 480.66 200 481.32 200 482C203.96 482.66 207.92 483.32 212 484C211.34 483.34 210.68 482.68 210 482C208.99 480.67 207.99 479.34 207 478C206.07 476.89 206.07 476.89 205.12 475.75C202.9 472.87 201.02 469.89 199.15 466.77C197.99 464.85 197.99 464.85 196 463C190.78 454.52 186.18 445.67 181.59 436.84C180.4 434.55 179.2 432.28 178 430C177.56 429.16 177.11 428.32 176.66 427.46C176.22 426.64 175.78 425.83 175.32 424.99C174.93 424.25 174.53 423.51 174.12 422.74C173.11 420.84 173.11 420.84 171 420C170.76 418.14 170.53 416.27 170.34 414.41C169.74 410.17 168.62 405.97 167 402C166.34 401.67 165.68 401.34 165 401C164.34 400.67 163.68 400.34 163 400C163 399.01 163 398.02 163 397C162.5 397.99 162.5 397.99 162 399C161.34 399 160.68 399 160 399C160 397.68 160 396.36 160 395C161.32 395.33 162.64 395.66 164 396C163.77 395.18 163.77 395.18 163.54 394.34C162.85 391.83 162.18 389.32 161.5 386.81C161.26 385.95 161.02 385.08 160.78 384.19C160.55 383.35 160.33 382.51 160.09 381.64C159.78 380.49 159.78 380.49 159.46 379.31C158.96 376.82 158.92 374.53 159 372C157.68 371.67 156.36 371.34 155 371C155.66 370.67 156.32 370.34 157 370C156.98 368.95 156.95 367.9 156.93 366.82C156.63 347.93 156.63 347.93 161.38 342.06C165.72 338.65 168.89 337.48 174.38 337.62C187.55 339.51 199.01 349.12 209.41 356.8C212.39 359.22 212.39 359.22 216 360C217.16 361.16 218.32 362.32 219.45 363.5C222.41 366.37 225.76 368.74 229.06 371.19C230.12 371.99 230.12 371.99 231.21 372.8C234.98 375.66 234.98 375.66 239.08 378.01C241.91 379.47 243.79 381.73 246 384C247.32 385.01 248.66 386.01 250 387C251.05 387.89 252.09 388.79 253.12 389.69C256.68 392.76 260.33 395.68 264.01 398.61C266.26 400.41 268.51 402.22 270.74 404.05C277.08 409.23 283.42 414.37 289.94 419.31C294.5 422.78 298.82 426.39 303 430.31C305.2 432.17 307.5 433.58 310 435C310.25 433.78 310.5 432.57 310.75 431.31C311.7 427.42 313.23 424.96 316 422C322.48 422.16 325.61 425.72 330 430C330.8 430.76 331.6 431.52 332.42 432.3C338.45 438.16 343.78 444.42 349 451C350.64 453.05 352.29 455.09 353.94 457.12C354.67 458.04 355.4 458.95 356.15 459.88C357.83 462.07 357.83 462.07 360 463C360.22 462.04 360.44 461.09 360.66 460.11C364.61 443.68 372.4 430.28 387 421C389.27 419.73 391.55 418.51 393.85 417.29C396 416 397.67 414.59 399.5 412.88C403.18 409.59 407.1 407.68 412 407C413.93 407.21 415.87 407.44 417.79 407.72C420.84 408.11 423.88 408.19 426.95 408.29C441.38 408.8 454.04 411.8 464.34 422.76C469.02 429.08 472.43 436.66 474.62 444.19C475.56 447.34 475.76 447.83 478.56 449.88C479.37 450.25 480.17 450.62 481 451C483 454 483 454 482.88 457.31C482 461 482 461 479.81 464.12C479.21 465.07 478.62 466.02 478 467C479.46 471.95 482.24 476.51 484.61 481.09C487 485.79 487 485.79 487 488C491.67 488.18 494.74 487.8 499 486C501.5 485.13 503.99 484.27 506.5 483.44C507.15 483.22 507.8 483 508.47 482.77C521.51 478.41 534.96 478.58 547.89 483.12C551.42 484.12 554.35 484.28 558 484C558.66 483.34 559.32 482.68 560 482C562.13 480.95 564.28 479.94 566.44 478.94C573.47 475.54 579.21 471.28 585 466C585.71 465.37 586.41 464.75 587.14 464.11C600.63 451.49 609.39 433.66 614 416C614.34 414.83 614.34 414.83 614.68 413.63C615.77 409.67 616.2 406.1 616 402C616.66 402 617.32 402 618 402C617.81 400.87 617.63 399.73 617.44 398.56C617.29 397.39 617.15 396.21 617 395C617.33 394.67 617.66 394.34 618 394C618.26 392.1 618.47 390.19 618.65 388.28C618.83 386.51 618.83 386.51 619.01 384.71C619.25 382.22 619.49 379.74 619.72 377.25C621.28 361.94 621.28 361.94 626.31 356.5C629.56 354.69 631.34 354.45 635 355C639.06 357.27 639.94 359.83 641.25 364.19C641.75 365.82 641.75 365.82 642.27 367.48C642.51 368.31 642.75 369.14 643 370C657.27 352.8 667.16 330.92 676.08 310.56C678.04 306.1 680.1 301.72 682.31 297.38C685.51 291.1 688.45 284.72 691.38 278.31C692.33 276.22 693.29 274.12 694.25 272.02C695.56 269.16 696.87 266.3 698.16 263.43C706.3 245.51 715.73 228.25 726.92 212.05C728.65 209.51 730.25 206.96 731.81 204.31C734 200.99 735.8 199.3 739 197C739.55 196.45 740.1 195.91 740.67 195.35C746.12 190.02 751.7 187.96 759 186ZM748 209C746.07 210.96 744.46 212.77 742.81 214.94C742.35 215.54 741.89 216.14 741.41 216.77C725.29 238.45 715.03 264.35 704.02 288.86C698.57 301.01 692.99 313.1 687 325C686.69 325.61 686.39 326.23 686.07 326.86C679.3 340.39 672.28 353.78 664.69 366.88C664.14 367.83 663.59 368.78 663.02 369.77C657.89 378.51 652.18 386.6 645.38 394.12C639.58 401.74 638.37 410.66 636.39 419.85C634.71 427.6 632.15 434.73 629 442C628.51 443.15 628.03 444.3 627.52 445.48C619.1 463.82 605.43 478.61 588.94 489.93C586.04 491.85 586.04 491.85 584 494C593.16 499.14 599.65 497.82 609.5 495.44C610.66 495.16 611.82 494.89 613.01 494.6C626.22 491.36 637.95 486.33 650 480C649.42 480.87 649.42 480.87 648.84 481.76C645.56 486.78 645.56 486.78 645.69 492.56C646.34 493.77 646.34 493.77 647 495C652.53 495.94 657.84 496.12 663.44 496.06C664.68 496.06 664.68 496.06 665.94 496.05C667.96 496.04 669.98 496.02 672 496C672 495.01 672 494.02 672 493C672.33 493.66 672.66 494.32 673 495C700.64 494.31 725.72 471.8 744 453C746.3 450.68 748.61 448.38 750.96 446.11C756.12 441.1 760.62 435.71 765 430C765.57 429.3 766.14 428.61 766.73 427.89C768.28 425.96 768.28 425.96 768 423C768.99 422.67 769.98 422.34 771 422C772.45 420.21 772.45 420.21 773.69 418.06C774.12 417.35 774.56 416.64 775.01 415.91C776.15 414.06 776.15 414.06 776 412C776.66 412 777.32 412 778 412C779.26 410.42 779.26 410.42 780.46 408.34C780.93 407.57 781.4 406.79 781.89 405.99C782.63 404.76 782.63 404.76 783.38 403.5C783.86 402.71 784.34 401.92 784.84 401.1C790.36 393 790.36 393 793 384C788.76 385.67 785.84 388.83 782.62 391.94C776.25 397.98 769.57 403.44 762.59 408.77C760.22 410.6 757.89 412.49 755.56 414.38C749.34 419.34 743.27 423.44 736.24 427.2C732.33 429.37 728.54 431.69 724.75 434.06C724.09 434.47 723.43 434.89 722.75 435.31C718.38 438.06 714.17 440.97 710 444C710 442 710 442 711.78 440.21C712.51 439.48 713.25 438.75 714 438C735.34 407.88 747.65 371.15 755.62 335.44C755.99 333.86 755.99 333.86 756.36 332.24C756.58 331.23 756.81 330.22 757.04 329.18C757.25 328.26 757.46 327.34 757.67 326.39C758.2 323.86 758.2 323.86 757 321C757.33 320.34 757.66 319.68 758 319C758.33 319 758.66 319 759 319C760.3 313.24 761.26 307.91 761 302C761.33 302 761.66 302 762 302C766.31 272.32 766.33 242.18 759 213C758.81 212.24 758.62 211.48 758.43 210.7C757.96 208.8 757.48 206.9 757 205C753.52 205 750.78 207.08 748 209ZM176 355C179.32 370.69 187.31 385.07 195 399C195.54 400 196.07 401 196.62 402.02C209.12 425.25 224.3 446.6 241.64 466.44C242.85 467.83 244.06 469.23 245.26 470.64C248.8 474.73 252.44 478.4 256.58 481.89C258.49 483.56 260.32 485.25 262.14 487.02C276.65 501.05 292.87 513.93 311 523C309.02 524.32 307.04 525.64 305 527C304.67 526.01 304.34 525.02 304 524C305.32 523.67 306.64 523.34 308 523C307.24 522.88 306.48 522.77 305.69 522.65C302.23 522.12 298.77 521.59 295.31 521.06C294.11 520.88 292.92 520.7 291.68 520.51C289.95 520.24 289.95 520.24 288.18 519.97C287.11 519.81 286.05 519.65 284.95 519.48C264.65 516.18 244.49 511.45 225.68 503.02C222.79 501.92 220.06 501.41 217 501C221.06 506.91 225.44 511.5 231 516C231.83 516.73 232.67 517.45 233.52 518.2C240.85 524.3 248.74 528.78 257.19 533.19C258.31 533.78 259.44 534.37 260.59 534.97C264.74 537.12 264.74 537.12 269 539C270.95 538.16 270.95 538.16 272 537C272 537.99 272 538.98 272 540C288.6 547.72 305.47 553.74 323 559C323.72 559.22 324.44 559.43 325.19 559.66C328.44 560.61 331.67 561.38 335 562C336.16 562.25 337.33 562.5 338.52 562.75C339.79 563.02 341.07 563.29 342.38 563.56C343.64 563.83 344.91 564.1 346.21 564.38C349.94 565.1 349.94 565.1 353.54 564.96C357 565 357 565 360.45 565.99C364.39 567.11 367.72 567.23 371.81 567.19C373.12 567.18 374.42 567.17 375.77 567.17C378.89 567.22 378.89 567.22 381 566C381.99 565.67 382.98 565.34 384 565C385.21 563 385.21 563 386 561C385.38 560.42 384.76 559.85 384.12 559.25C382.18 557.19 381.15 555.56 380 553C379.67 552.67 379.34 552.34 379 552C379.96 551.78 379.96 551.78 380.94 551.56C382.98 551.19 382.98 551.19 384 550C384.99 550.33 385.98 550.66 387 551C389.05 550.91 389.05 550.91 391.28 550.55C392.12 550.42 392.96 550.3 393.82 550.17C394.7 550.03 395.59 549.89 396.5 549.75C397.85 549.54 397.85 549.54 399.22 549.33C405.61 548.31 411.83 546.99 418 545C414 541.67 409.78 538.73 405.5 535.78C400.55 532.25 396.92 528.87 393.31 523.94C392.16 522.37 392.16 522.37 390.99 520.78C386.82 514.95 386.82 514.95 386 511C385.41 511.06 384.81 511.12 384.2 511.18C352.15 514.42 352.15 514.42 341 507C338.44 503.45 338.87 500.02 339.51 495.86C340.15 493.43 341.35 491.87 343 490C343 489.34 343 488.68 343 488C343.54 487.77 344.07 487.55 344.62 487.31C347.79 485.57 350.27 483.36 353 481C350.95 478.75 349.99 478 347 477C345.32 475.68 343.66 474.34 342 473C339.61 471.42 337.67 470.16 334.88 469.5C332.5 468.87 331.72 467.73 330 466C327.39 464.15 324.66 462.5 321.94 460.81C321.2 460.35 320.47 459.89 319.72 459.41C319.01 458.97 318.31 458.53 317.59 458.08C316.95 457.68 316.31 457.28 315.65 456.87C314.02 455.84 314.02 455.84 312 456C312 455.34 312 454.68 312 454C309.69 453.34 307.38 452.68 305 452C305 451.01 305 450.02 305 449C303.16 447.32 303.16 447.32 300.62 445.69C294.24 441.23 288.14 436.47 282.02 431.66C281.27 431.07 280.52 430.48 279.75 429.88C278.74 429.08 278.74 429.08 277.7 428.27C276.02 426.94 276.02 426.94 274 426C272.07 424.39 270.15 422.77 268.25 421.12C263.58 417.13 258.85 413.26 254 409.5C249.44 405.96 245 402.33 240.62 398.56C233.97 392.85 226.98 387.63 219.92 382.42C218.07 381.05 216.23 379.67 214.39 378.28C213.56 377.65 213.56 377.65 212.71 377.01C211.23 375.89 209.74 374.77 208.26 373.64C206.12 371.99 206.12 371.99 204 371C202.43 369.82 200.87 368.63 199.31 367.44C194.7 364.05 189.99 361.19 184.94 358.5C184.28 358.15 183.63 357.8 182.95 357.44C179.65 355.6 179.65 355.6 176 355ZM794 380C795 382 795 382 795 382L794 380ZM793 382C794 384 794 384 794 384L793 382ZM164 396C165 398 165 398 165 398L164 396ZM411.19 428.69C410.8 429.12 410.4 429.55 410 430C409.5 428.51 409.5 428.51 409 427C401.36 426.38 396.78 430.45 391 435C380.81 444.35 376.94 455.25 375.06 468.62C373.24 480.62 366.11 487.56 357 495C357.33 495.99 357.66 496.98 358 498C383.9 498.56 409.73 491.55 430 475C428.3 472.92 427.42 472.07 424.73 471.59C423.89 471.56 423.05 471.53 422.19 471.5C417.81 471.2 414.85 470.21 411 468C410.34 468 409.68 468 409 468C409.66 467.34 410.32 466.68 411 466C410.34 466 409.68 466 409 466C409 465.34 409 464.68 409 464C409.82 463.96 410.64 463.93 411.49 463.89C422.96 463.66 422.96 463.66 433 459C433.97 458.79 434.94 458.59 435.94 458.38C442.29 456.62 448.69 452.25 452.62 446.94C454.22 443.53 454.62 441.72 454 438C450.39 431.07 444.61 425.95 437.17 423.53C427.54 421.18 418.79 421.61 411.19 428.69ZM643 491C643 491.66 643 492.32 643 493C643.66 492.67 644.32 492.34 645 492C644.34 491.67 643.68 491.34 643 491ZM385 564C385.66 564.66 386.32 565.32 387 566C387 565.34 387 564.68 387 564C386.34 564 385.68 564 385 564ZM339 619C339.99 620.49 339.99 620.49 341 622C341.66 621.01 342.32 620.02 343 619C341.68 619 340.36 619 339 619ZM452 628C452.33 628.99 452.66 629.98 453 631C453.33 630.01 453.66 629.02 454 628C453.34 628 452.68 628 452 628ZM497.7 634.09C491.73 640.8 491.77 649.73 492.14 658.27C493.49 671.45 496.98 686.16 503 698C503.61 700.17 504.16 702.37 504.69 704.56C506 709.99 507.36 715.41 508.78 720.81C509.09 722.01 509.41 723.2 509.73 724.43C510.36 726.82 510.99 729.21 511.63 731.59C513.06 737.05 514.39 742.38 515 748C516 748.18 517 748.36 518.04 748.55C519.38 748.8 520.72 749.06 522.06 749.31C522.72 749.43 523.38 749.55 524.05 749.67C530.78 750.96 536.51 753.53 542.31 757.19C545.43 759.35 545.43 759.35 549 760C548.61 756.21 548.18 753.34 546.41 749.94C544.22 744.99 545.18 740.24 545.81 735C548.51 708.12 549.03 679.67 531.54 657.12C531.1 656.61 530.65 656.09 530.19 655.56C528.18 653.21 527.35 652.02 527 649C538.05 654.46 545.24 661.63 552 672C553.7 673.99 555.45 675.94 557.22 677.88C559.38 680.45 561.15 683.2 563 686C564.53 688.07 566.07 690.14 567.62 692.19C569.82 695.09 571.98 697.97 574 701C573.67 699.02 573.34 697.04 573 695C573.33 695 573.66 695 574 695C575.67 684.81 574.58 674.62 568.57 665.93C558.89 651.99 558.89 651.99 545 644C544.89 643.12 544.89 643.12 544.78 642.22C542.97 637.09 536.23 634.21 531.65 631.73C519.88 626.19 507.7 624.52 497.7 634.09ZM453 631C452.67 631.66 452.34 632.32 452 633C452.66 633 453.32 633 454 633C453.67 632.34 453.34 631.68 453 631ZM450.76 706.93C450.18 707.94 449.6 708.96 449 710C448.23 711.28 447.46 712.55 446.68 713.82C430.3 740.51 430.3 740.51 427 771C427.89 774.34 428.57 775.39 431 778C437.76 780.48 444.78 777.74 451.17 775.11C463.45 768.56 470.92 751.88 475.39 739.24C477.44 732.44 478.35 725.94 478.44 718.88C478.45 718.16 478.46 717.45 478.47 716.72C478.38 711.32 476.88 708.41 473.64 704.26C470.13 701.56 465.28 701.59 461 701C459.91 700.77 458.81 700.55 457.69 700.31C453.75 701.32 452.8 703.53 450.76 706.93ZM283 1025C284 1029 284 1029 284 1029L283 1025ZM314 1104C314 1104.66 314 1105.32 314 1106C314.66 1105.67 315.32 1105.34 316 1105C315.34 1104.67 314.68 1104.34 314 1104Z" fill="#020201"/>
</svg>
